<svg version="1.1" id="DU_Shield" xmlns="http://www.w3.org/2000/svg" x="0px" y="0px" viewBox="0 0 69.6 88.7"  xml:space="preserve">
<style type="text/css">
	.st0{fill:#98002E;}
	.st1{fill:#A8996E;}
	.st2{fill:#FFFFFF;}
</style>
<!-- Shield--><path class="st0" d="M66.9,4.1C56.2,1.4,45.2,0,34.5,0C23.9,0,13.3,1.3,2.8,3.9L0,4.6v29.3l0,0c0.1,9.6,2.1,18.6,6,26.6 c5.4,11,14.4,20.2,27,27.2l1.8,1l1.8-1c12.5-7,21.6-16.2,27-27.2c3.9-8.1,5.9-17,6-26.6V4.8L66.9,4.1z"/>
	<!-- 1 --><path class="st1" d="M13.9,11.9l2.3-1h0.2l-2,6.9c-0.1,0.5-0.2,0.7-0.2,0.9c0,0.1,0.1,0.2,0.2,0.3s0.3,0.1,0.7,0.1L15,19.3h-3.1 l0.1-0.2c0.4,0,0.6,0,0.8-0.1c0.1-0.1,0.2-0.1,0.3-0.2c0.1-0.1,0.2-0.4,0.3-0.9l1.3-4.4c0.2-0.6,0.3-1,0.3-1.1s0-0.2-0.1-0.3 C14.8,12,14.8,12,14.7,12s-0.4,0.1-0.7,0.2L13.9,11.9z"/>
	<!-- 8 --><path class="st1" d="M18.3,15.2c-0.5-0.5-0.8-1-0.9-1.3c-0.1-0.3-0.1-0.7,0-1c0.2-0.5,0.5-1,1-1.4s1.1-0.6,1.8-0.6 s1.1,0.2,1.4,0.5c0.3,0.4,0.4,0.8,0.2,1.2c-0.1,0.3-0.3,0.6-0.6,0.9s-0.9,0.7-1.7,1.1c0.5,0.5,0.9,1,1,1.3 c0.2,0.4,0.2,0.8,0.1,1.3c-0.2,0.6-0.5,1.1-1.1,1.5c-0.6,0.4-1.2,0.6-1.9,0.6c-0.8,0-1.3-0.2-1.6-0.7c-0.2-0.4-0.3-0.8-0.1-1.3 c0.1-0.4,0.3-0.7,0.7-1.1C17.1,16,17.6,15.6,18.3,15.2z M18.5,15.4c-0.4,0.3-0.8,0.6-1,0.9c-0.3,0.3-0.5,0.7-0.6,1.1 c-0.2,0.5-0.1,0.9,0.1,1.2c0.2,0.3,0.5,0.5,0.9,0.5c0.4,0,0.8-0.1,1.2-0.4c0.3-0.2,0.6-0.5,0.7-0.9c0.1-0.3,0.1-0.5,0-0.8 C19.6,16.6,19.2,16.1,18.5,15.4z M19.5,14.5c0.6-0.4,1-0.8,1.2-1c0.2-0.3,0.4-0.5,0.4-0.9c0.1-0.4,0.1-0.8-0.1-1s-0.5-0.4-0.9-0.4 c-0.4,0-0.8,0.1-1.1,0.4c-0.3,0.2-0.5,0.5-0.6,0.8c-0.1,0.2-0.1,0.4,0,0.6c0,0.2,0.1,0.4,0.3,0.6L19.5,14.5z"/>
	<!-- 6 --><path class="st1" d="M29.2,11l-0.1,0.2c-0.5,0.1-1,0.2-1.4,0.3c-0.4,0.2-0.8,0.4-1.2,0.7c-0.4,0.3-0.8,0.7-1.1,1.1s-0.7,0.9-1,1.4 c0.7-0.4,1.3-0.6,1.9-0.6c0.6,0,1,0.2,1.2,0.7c0.3,0.4,0.3,1,0.1,1.7c-0.2,0.7-0.6,1.3-1.2,1.9c-0.7,0.7-1.5,1-2.3,1 c-0.6,0-1-0.2-1.3-0.6c-0.6-0.7-0.7-1.7-0.3-2.8c0.2-0.7,0.6-1.4,1.1-2.1s1.1-1.2,1.8-1.8c0.7-0.5,1.3-0.9,1.9-1 c0.6-0.2,1-0.3,1.5-0.3h0.4V11z M24.2,15.2c-0.2,0.5-0.4,1-0.5,1.3c-0.1,0.4-0.2,0.8-0.2,1.3c0,0.4,0.1,0.8,0.3,1.1 c0.1,0.2,0.4,0.3,0.7,0.3c0.3,0,0.7-0.2,1.1-0.5c0.4-0.3,0.6-0.8,0.8-1.4c0.2-0.7,0.2-1.3,0.1-1.8c-0.1-0.5-0.4-0.8-0.9-0.8 c-0.2,0-0.3,0-0.5,0.1C24.9,14.8,24.6,15,24.2,15.2z"/>
	<!-- 4 --><path class="st1" d="M34.2,16.3l-0.3,0.9h-1.1l-0.6,2.2h-1l0.6-2.2h-3.5l0.2-0.8l5.4-5.4h0.7L33,16.3H34.2z M32.1,16.3l1.2-4.1 l-4.1,4.1H32.1z"/>
	<!-- white background -->
	<path class="st2" d="M18.5,38.3c0,0,4.3-2.2,8-4.2s8.9-2.3,13-0.1l-1.7-2.6l7.6,3.5l0.3-2.1L35,27.5L15.8,37.9L18.5,38.3z"/>
	<path class="st2" d="M3.7,7.5V34c0.1,10,2.4,18.3,5.7,25.1C15.7,72,26.3,79.8,34.8,84.6C43.4,79.8,54,72,60.3,59 c3.3-6.8,5.6-15.1,5.7-25.1V7.6C45.3,2.4,24.4,2.3,3.7,7.5z M31.6,76.1l-1.4,0.4V56.7c0-0.4,0.3-0.8,0.7-0.8s0.7,0.3,0.7,0.8V76.1z  M34.9,75.2l-1.4,0.4V56.7c0-0.4,0.3-0.8,0.7-0.8s0.7,0.3,0.7,0.8V75.2z M45.5,45.2c-0.4,0.1-0.8,0.2-1,0.3v-5.1 c0.3-0.2,0.6-0.3,1-0.4V45.2z M47.4,44.9c-0.4,0-0.7,0.1-1,0.1v-5.2c0.3-0.1,0.7-0.1,1-0.2V44.9z M48.8,44.8c-0.2,0-0.4,0-0.6,0 v-5.3c0.2,0,0.4,0,0.6,0c0.2,0,0.4,0,0.6,0v5.3C49.1,44.8,48.9,44.8,48.8,44.8z M50.1,44.9v-5.3c0.4,0,0.7,0.1,1,0.2V45 C50.8,45,50.5,44.9,50.1,44.9z M52,45.2V40c0.4,0.1,0.7,0.3,1,0.4v5.1C52.7,45.4,52.4,45.3,52,45.2z M64.3,34.1 c0,2.6-0.2,5.1-0.5,7.4L55,37.3l0.3,1.5l8.4,3.6c-0.8,5.4-2.2,10.2-4.1,14.5c-1.5,0.2-2.9,0.4-4.3,0.7l0,0V49l0,0 c0-1.1-0.5-2.2-1.3-3v-4.6v-0.9l0.3-0.3V40c-1.2-0.9-3.1-1.5-5.3-1.5l0,0l0,0l0,0v0.1v0.1l0,0l0,0l0,0l0,0v-0.1v-0.1l0,0l0,0 c-2.2,0-4.1,0.6-5.3,1.6v0.2l0.3,0.4v0.9l0,0v4.6c-1.2,0.6-1.7,1.6-1.7,2.7l0,0v11.9l0,0c-0.8,0.3-1.7,0.5-2.4,0.8V50.4h-2.3v-2.5 H28v2.5h-2v16.8c-0.7,0.4-1.5,0.7-2.2,1.1v-2.5l-3.2-9.1l-3.4,9.1v2.6c-2.4-2.9-4.5-6.2-6.3-10c-2.1-4.5-3.8-9.7-4.7-15.6 c2.2-1.2,5.7-2.9,10.7-2.9c7.3,0,15.7,3.5,15.7,3.5c-3.7-1.9-11.5-4.8-19.2-7L5.9,41c-0.3-2.2-0.4-4.4-0.4-6.8V8.6 c19.6-5,39.4-4.9,59,0.2L64.3,34.1z"/>
	<!-- roof -->
	<path class="st1" d="M54.3,40.1L49,10.3l-5.3,29.9l0,0c1.2-0.9,3.1-1.5,5.3-1.5l0,0l0,0l0,0l0,0l0,0 C51.1,38.6,53.1,39.2,54.3,40.1z"/>
</svg>