<?xml version="1.0" encoding="UTF-8"?>
<svg xmlns="http://www.w3.org/2000/svg" xmlns:xlink="http://www.w3.org/1999/xlink" width="432pt" height="504pt" viewBox="0 0 432 504" version="1.1">
<defs>
<clipPath id="clip1">
  <path d="M 47.746094 419 L 426.519531 419 L 426.519531 421 L 47.746094 421 Z M 47.746094 419 "/>
</clipPath>
<clipPath id="clip2">
  <path d="M 47.746094 314 L 426.519531 314 L 426.519531 317 L 47.746094 317 Z M 47.746094 314 "/>
</clipPath>
<clipPath id="clip3">
  <path d="M 47.746094 210 L 426.519531 210 L 426.519531 213 L 47.746094 213 Z M 47.746094 210 "/>
</clipPath>
<clipPath id="clip4">
  <path d="M 47.746094 106 L 426.519531 106 L 426.519531 108 L 47.746094 108 Z M 47.746094 106 "/>
</clipPath>
<clipPath id="clip5">
  <path d="M 47.746094 470 L 426.519531 470 L 426.519531 474 L 47.746094 474 Z M 47.746094 470 "/>
</clipPath>
<clipPath id="clip6">
  <path d="M 47.746094 366 L 426.519531 366 L 426.519531 370 L 47.746094 370 Z M 47.746094 366 "/>
</clipPath>
<clipPath id="clip7">
  <path d="M 47.746094 261 L 426.519531 261 L 426.519531 266 L 47.746094 266 Z M 47.746094 261 "/>
</clipPath>
<clipPath id="clip8">
  <path d="M 47.746094 157 L 426.519531 157 L 426.519531 161 L 47.746094 161 Z M 47.746094 157 "/>
</clipPath>
<clipPath id="clip9">
  <path d="M 47.746094 53 L 426.519531 53 L 426.519531 57 L 47.746094 57 Z M 47.746094 53 "/>
</clipPath>
</defs>
<g id="surface149">
<path style="fill:none;stroke-width:1.066978;stroke-linecap:round;stroke-linejoin:round;stroke:rgb(100%,100%,100%);stroke-opacity:1;stroke-miterlimit:10;" d="M 0 504 L 432 504 L 432 0 L 0 0 Z M 0 504 "/>
<g clip-path="url(#clip1)" clip-rule="nonzero">
<path style="fill:none;stroke-width:1.600468;stroke-linecap:butt;stroke-linejoin:round;stroke:rgb(0%,100%,100%);stroke-opacity:0.101961;stroke-miterlimit:10;" d="M 47.746094 419.945312 L 426.519531 419.945312 "/>
</g>
<g clip-path="url(#clip2)" clip-rule="nonzero">
<path style="fill:none;stroke-width:1.600468;stroke-linecap:butt;stroke-linejoin:round;stroke:rgb(0%,100%,100%);stroke-opacity:0.101961;stroke-miterlimit:10;" d="M 47.746094 315.683594 L 426.519531 315.683594 "/>
</g>
<g clip-path="url(#clip3)" clip-rule="nonzero">
<path style="fill:none;stroke-width:1.600468;stroke-linecap:butt;stroke-linejoin:round;stroke:rgb(0%,100%,100%);stroke-opacity:0.101961;stroke-miterlimit:10;" d="M 47.746094 211.421875 L 426.519531 211.421875 "/>
</g>
<g clip-path="url(#clip4)" clip-rule="nonzero">
<path style="fill:none;stroke-width:1.600468;stroke-linecap:butt;stroke-linejoin:round;stroke:rgb(0%,100%,100%);stroke-opacity:0.101961;stroke-miterlimit:10;" d="M 47.746094 107.160156 L 426.519531 107.160156 "/>
</g>
<g clip-path="url(#clip5)" clip-rule="nonzero">
<path style="fill:none;stroke-width:3.200935;stroke-linecap:butt;stroke-linejoin:round;stroke:rgb(0%,100%,100%);stroke-opacity:0.101961;stroke-miterlimit:10;" d="M 47.746094 472.074219 L 426.519531 472.074219 "/>
</g>
<g clip-path="url(#clip6)" clip-rule="nonzero">
<path style="fill:none;stroke-width:3.200935;stroke-linecap:butt;stroke-linejoin:round;stroke:rgb(0%,100%,100%);stroke-opacity:0.101961;stroke-miterlimit:10;" d="M 47.746094 367.8125 L 426.519531 367.8125 "/>
</g>
<g clip-path="url(#clip7)" clip-rule="nonzero">
<path style="fill:none;stroke-width:3.200935;stroke-linecap:butt;stroke-linejoin:round;stroke:rgb(0%,100%,100%);stroke-opacity:0.101961;stroke-miterlimit:10;" d="M 47.746094 263.550781 L 426.519531 263.550781 "/>
</g>
<g clip-path="url(#clip8)" clip-rule="nonzero">
<path style="fill:none;stroke-width:3.200935;stroke-linecap:butt;stroke-linejoin:round;stroke:rgb(0%,100%,100%);stroke-opacity:0.101961;stroke-miterlimit:10;" d="M 47.746094 159.289062 L 426.519531 159.289062 "/>
</g>
<g clip-path="url(#clip9)" clip-rule="nonzero">
<path style="fill:none;stroke-width:3.200935;stroke-linecap:butt;stroke-linejoin:round;stroke:rgb(0%,100%,100%);stroke-opacity:0.101961;stroke-miterlimit:10;" d="M 47.746094 55.03125 L 426.519531 55.03125 "/>
</g>
<path style="fill:none;stroke-width:3.200935;stroke-linecap:butt;stroke-linejoin:round;stroke:rgb(0%,100%,100%);stroke-opacity:1;stroke-miterlimit:10;" d="M 47.746094 498.519531 L 47.746094 5.480469 "/>
<path style=" stroke:none;fill-rule:evenodd;fill:rgb(0%,100%,100%);fill-opacity:0.501961;" d="M 33.015625 475.132812 L 33.015625 477.234375 L 31.050781 477.234375 L 31.050781 475.132812 L 26.355469 475.132812 L 26.355469 473.585938 L 30.714844 466.914062 L 33.015625 466.914062 L 33.015625 473.601562 L 34.390625 473.601562 L 34.390625 475.132812 Z M 31.050781 470.226562 L 31.050781 469.863281 L 31.054688 469.820312 L 31.054688 469.78125 L 31.058594 469.738281 L 31.058594 469.65625 L 31.0625 469.613281 L 31.0625 469.527344 L 31.070312 469.441406 L 31.070312 469.402344 L 31.074219 469.359375 L 31.078125 469.320312 L 31.078125 469.277344 L 31.082031 469.238281 L 31.082031 469.199219 L 31.085938 469.160156 L 31.085938 469.082031 L 31.089844 469.042969 L 31.097656 468.972656 L 31.097656 468.9375 L 31.101562 468.90625 L 31.105469 468.878906 L 31.109375 468.847656 L 31.109375 468.824219 L 31.113281 468.796875 L 31.117188 468.773438 L 31.109375 468.792969 L 31.101562 468.808594 L 31.089844 468.828125 L 31.082031 468.851562 L 31.058594 468.898438 L 31.042969 468.921875 L 31.03125 468.949219 L 31.015625 468.980469 L 31 469.007812 L 30.96875 469.070312 L 30.949219 469.101562 L 30.933594 469.132812 L 30.894531 469.195312 L 30.875 469.230469 L 30.855469 469.261719 L 30.796875 469.367188 L 30.777344 469.398438 L 30.757812 469.433594 L 30.738281 469.464844 L 30.699219 469.535156 L 30.675781 469.566406 L 30.65625 469.601562 L 30.632812 469.636719 L 30.613281 469.667969 L 30.589844 469.703125 L 30.550781 469.765625 L 30.535156 469.796875 L 30.515625 469.824219 L 30.496094 469.855469 L 30.480469 469.882812 L 30.460938 469.910156 L 30.445312 469.9375 L 30.429688 469.960938 L 28.035156 473.601562 L 31.050781 473.601562 Z M 31.050781 470.226562 "/>
<path style=" stroke:none;fill-rule:evenodd;fill:rgb(0%,100%,100%);fill-opacity:0.501961;" d="M 42.199219 472.070312 L 42.195312 472.363281 L 42.1875 472.644531 L 42.175781 472.917969 L 42.15625 473.179688 L 42.132812 473.433594 L 42.101562 473.679688 L 42.066406 473.917969 L 42.023438 474.144531 L 41.980469 474.359375 L 41.925781 474.570312 L 41.871094 474.765625 L 41.8125 474.957031 L 41.746094 475.140625 L 41.675781 475.316406 L 41.605469 475.484375 L 41.527344 475.644531 L 41.445312 475.796875 L 41.359375 475.941406 L 41.269531 476.078125 L 41.171875 476.210938 L 41.078125 476.332031 L 40.976562 476.445312 L 40.871094 476.550781 L 40.761719 476.652344 L 40.652344 476.746094 L 40.535156 476.832031 L 40.417969 476.910156 L 40.292969 476.984375 L 40.167969 477.050781 L 40.039062 477.109375 L 39.90625 477.160156 L 39.773438 477.207031 L 39.636719 477.25 L 39.496094 477.285156 L 39.355469 477.3125 L 39.210938 477.335938 L 39.0625 477.355469 L 38.914062 477.371094 L 38.765625 477.378906 L 38.609375 477.382812 L 38.457031 477.378906 L 38.304688 477.371094 L 38.15625 477.355469 L 38.007812 477.335938 L 37.863281 477.3125 L 37.722656 477.285156 L 37.582031 477.25 L 37.449219 477.207031 L 37.3125 477.160156 L 37.179688 477.109375 L 37.054688 477.050781 L 36.929688 476.988281 L 36.808594 476.914062 L 36.6875 476.835938 L 36.574219 476.75 L 36.464844 476.660156 L 36.359375 476.558594 L 36.253906 476.453125 L 36.15625 476.335938 L 36.0625 476.214844 L 35.96875 476.085938 L 35.882812 475.949219 L 35.796875 475.804688 L 35.71875 475.652344 L 35.644531 475.492188 L 35.574219 475.324219 L 35.503906 475.148438 L 35.441406 474.964844 L 35.382812 474.773438 L 35.328125 474.574219 L 35.277344 474.367188 L 35.234375 474.148438 L 35.195312 473.921875 L 35.160156 473.6875 L 35.128906 473.441406 L 35.105469 473.183594 L 35.089844 472.921875 L 35.074219 472.648438 L 35.066406 472.363281 L 35.066406 471.765625 L 35.074219 471.46875 L 35.089844 471.183594 L 35.105469 470.910156 L 35.128906 470.644531 L 35.15625 470.394531 L 35.191406 470.152344 L 35.230469 469.921875 L 35.273438 469.703125 L 35.320312 469.492188 L 35.375 469.292969 L 35.433594 469.097656 L 35.5 468.914062 L 35.566406 468.738281 L 35.636719 468.570312 L 35.714844 468.414062 L 35.792969 468.261719 L 35.878906 468.121094 L 35.96875 467.984375 L 36.0625 467.859375 L 36.15625 467.742188 L 36.257812 467.632812 L 36.363281 467.527344 L 36.472656 467.433594 L 36.582031 467.34375 L 36.699219 467.261719 L 36.816406 467.1875 L 36.941406 467.121094 L 37.066406 467.0625 L 37.195312 467.011719 L 37.332031 466.960938 L 37.46875 466.921875 L 37.609375 466.882812 L 37.75 466.851562 L 37.898438 466.824219 L 38.046875 466.800781 L 38.351562 466.769531 L 38.507812 466.761719 L 38.816406 466.761719 L 38.964844 466.769531 L 39.253906 466.800781 L 39.394531 466.824219 L 39.535156 466.851562 L 39.671875 466.882812 L 39.9375 466.960938 L 40.195312 467.0625 L 40.320312 467.121094 L 40.441406 467.1875 L 40.558594 467.261719 L 40.671875 467.34375 L 40.785156 467.433594 L 40.890625 467.527344 L 40.992188 467.632812 L 41.09375 467.742188 L 41.1875 467.859375 L 41.28125 467.984375 L 41.371094 468.121094 L 41.453125 468.261719 L 41.535156 468.414062 L 41.609375 468.570312 L 41.683594 468.738281 L 41.75 468.914062 L 41.8125 469.097656 L 41.871094 469.292969 L 41.925781 469.492188 L 41.980469 469.703125 L 42.023438 469.921875 L 42.066406 470.152344 L 42.101562 470.394531 L 42.132812 470.644531 L 42.15625 470.910156 L 42.175781 471.183594 L 42.1875 471.46875 L 42.195312 471.765625 Z M 40.132812 472.070312 L 40.132812 471.855469 L 40.128906 471.648438 L 40.125 471.449219 L 40.121094 471.257812 L 40.113281 471.074219 L 40.105469 470.898438 L 40.09375 470.730469 L 40.082031 470.570312 L 40.066406 470.414062 L 40.050781 470.269531 L 40.035156 470.128906 L 40.015625 469.996094 L 39.996094 469.867188 L 39.972656 469.742188 L 39.949219 469.625 L 39.921875 469.515625 L 39.894531 469.410156 L 39.863281 469.3125 L 39.832031 469.21875 L 39.796875 469.132812 L 39.761719 469.050781 L 39.722656 468.972656 L 39.679688 468.902344 L 39.636719 468.835938 L 39.59375 468.773438 L 39.546875 468.714844 L 39.496094 468.664062 L 39.445312 468.617188 L 39.335938 468.539062 L 39.277344 468.507812 L 39.21875 468.480469 L 39.15625 468.453125 L 39.09375 468.433594 L 39.027344 468.414062 L 38.957031 468.398438 L 38.882812 468.386719 L 38.808594 468.378906 L 38.734375 468.375 L 38.652344 468.371094 L 38.488281 468.378906 L 38.40625 468.386719 L 38.257812 468.417969 L 38.183594 468.4375 L 38.117188 468.457031 L 38.050781 468.484375 L 37.988281 468.515625 L 37.929688 468.546875 L 37.871094 468.585938 L 37.816406 468.625 L 37.761719 468.671875 L 37.710938 468.722656 L 37.664062 468.78125 L 37.617188 468.84375 L 37.574219 468.910156 L 37.53125 468.980469 L 37.492188 469.058594 L 37.453125 469.140625 L 37.417969 469.230469 L 37.386719 469.324219 L 37.355469 469.421875 L 37.328125 469.527344 L 37.300781 469.640625 L 37.277344 469.757812 L 37.253906 469.878906 L 37.230469 470.007812 L 37.214844 470.144531 L 37.195312 470.285156 L 37.183594 470.429688 L 37.167969 470.582031 L 37.160156 470.742188 L 37.148438 470.910156 L 37.140625 471.085938 L 37.132812 471.269531 L 37.128906 471.457031 L 37.125 471.65625 L 37.125 471.859375 L 37.121094 472.070312 L 37.125 472.28125 L 37.125 472.480469 L 37.128906 472.675781 L 37.136719 472.863281 L 37.144531 473.046875 L 37.152344 473.21875 L 37.164062 473.386719 L 37.175781 473.546875 L 37.1875 473.699219 L 37.203125 473.84375 L 37.21875 473.984375 L 37.238281 474.117188 L 37.261719 474.246094 L 37.285156 474.367188 L 37.308594 474.484375 L 37.335938 474.597656 L 37.363281 474.703125 L 37.425781 474.898438 L 37.496094 475.070312 L 37.574219 475.21875 L 37.617188 475.285156 L 37.664062 475.347656 L 37.710938 475.40625 L 37.8125 475.507812 L 37.867188 475.550781 L 37.921875 475.585938 L 37.980469 475.621094 L 38.039062 475.648438 L 38.105469 475.675781 L 38.171875 475.699219 L 38.238281 475.71875 L 38.3125 475.734375 L 38.386719 475.746094 L 38.460938 475.753906 L 38.542969 475.761719 L 38.703125 475.761719 L 38.78125 475.753906 L 38.855469 475.746094 L 38.929688 475.734375 L 38.996094 475.71875 L 39.066406 475.699219 L 39.132812 475.675781 L 39.195312 475.648438 L 39.253906 475.621094 L 39.3125 475.585938 L 39.367188 475.550781 L 39.421875 475.507812 L 39.476562 475.457031 L 39.523438 475.40625 L 39.574219 475.347656 L 39.617188 475.285156 L 39.664062 475.21875 L 39.742188 475.070312 L 39.78125 474.984375 L 39.816406 474.898438 L 39.851562 474.800781 L 39.882812 474.703125 L 39.910156 474.597656 L 39.9375 474.484375 L 39.964844 474.367188 L 39.988281 474.246094 L 40.007812 474.117188 L 40.027344 473.984375 L 40.046875 473.84375 L 40.0625 473.699219 L 40.078125 473.546875 L 40.089844 473.386719 L 40.101562 473.21875 L 40.109375 473.046875 L 40.121094 472.863281 L 40.125 472.675781 L 40.128906 472.480469 L 40.132812 472.28125 Z M 40.132812 472.070312 "/>
<path style=" stroke:none;fill-rule:evenodd;fill:rgb(0%,100%,100%);fill-opacity:0.501961;" d="M 34.054688 369.539062 L 34.050781 369.691406 L 34.042969 369.84375 L 34.03125 369.992188 L 34.015625 370.140625 L 33.992188 370.285156 L 33.964844 370.425781 L 33.933594 370.566406 L 33.894531 370.707031 L 33.851562 370.839844 L 33.804688 370.972656 L 33.753906 371.101562 L 33.699219 371.226562 L 33.636719 371.351562 L 33.574219 371.46875 L 33.503906 371.582031 L 33.429688 371.695312 L 33.347656 371.804688 L 33.265625 371.910156 L 33.175781 372.011719 L 33.078125 372.109375 L 32.980469 372.203125 L 32.878906 372.292969 L 32.769531 372.375 L 32.65625 372.457031 L 32.539062 372.535156 L 32.289062 372.675781 L 32.15625 372.738281 L 32.019531 372.800781 L 31.878906 372.855469 L 31.734375 372.90625 L 31.585938 372.949219 L 31.433594 372.992188 L 31.113281 373.054688 L 30.945312 373.078125 L 30.773438 373.097656 L 30.597656 373.109375 L 30.417969 373.117188 L 30.230469 373.121094 L 30.058594 373.117188 L 29.894531 373.113281 L 29.730469 373.101562 L 29.574219 373.085938 L 29.421875 373.070312 L 29.273438 373.046875 L 29.128906 373.019531 L 28.988281 372.988281 L 28.851562 372.953125 L 28.722656 372.914062 L 28.59375 372.871094 L 28.472656 372.824219 L 28.351562 372.773438 L 28.238281 372.71875 L 28.128906 372.664062 L 28.019531 372.605469 L 27.917969 372.542969 L 27.816406 372.476562 L 27.628906 372.335938 L 27.542969 372.261719 L 27.460938 372.183594 L 27.382812 372.101562 L 27.308594 372.015625 L 27.167969 371.84375 L 27.105469 371.753906 L 27.042969 371.660156 L 26.933594 371.464844 L 26.839844 371.261719 L 26.800781 371.160156 L 26.722656 370.949219 L 26.660156 370.730469 L 26.636719 370.621094 L 26.589844 370.394531 L 28.648438 370.226562 L 28.660156 370.273438 L 28.675781 370.324219 L 28.6875 370.371094 L 28.734375 370.511719 L 28.753906 370.558594 L 28.769531 370.605469 L 28.789062 370.648438 L 28.808594 370.695312 L 28.832031 370.742188 L 28.855469 370.785156 L 28.882812 370.828125 L 28.910156 370.867188 L 28.941406 370.910156 L 29.003906 370.988281 L 29.039062 371.027344 L 29.109375 371.097656 L 29.148438 371.132812 L 29.191406 371.164062 L 29.234375 371.199219 L 29.277344 371.226562 L 29.324219 371.257812 L 29.371094 371.285156 L 29.421875 371.3125 L 29.472656 371.335938 L 29.523438 371.363281 L 29.578125 371.382812 L 29.695312 371.421875 L 29.757812 371.4375 L 29.820312 371.449219 L 29.886719 371.460938 L 30.027344 371.476562 L 30.097656 371.480469 L 30.253906 371.488281 L 30.402344 371.480469 L 30.546875 371.46875 L 30.6875 371.441406 L 30.816406 371.40625 L 30.941406 371.363281 L 31.0625 371.308594 L 31.175781 371.246094 L 31.28125 371.171875 L 31.382812 371.089844 L 31.476562 370.996094 L 31.5625 370.894531 L 31.640625 370.78125 L 31.710938 370.664062 L 31.769531 370.535156 L 31.820312 370.398438 L 31.863281 370.25 L 31.894531 370.097656 L 31.917969 369.933594 L 31.933594 369.761719 L 31.9375 369.582031 L 31.9375 369.5 L 31.933594 369.421875 L 31.917969 369.265625 L 31.894531 369.117188 L 31.863281 368.976562 L 31.84375 368.910156 L 31.796875 368.777344 L 31.773438 368.714844 L 31.746094 368.652344 L 31.683594 368.535156 L 31.652344 368.480469 L 31.617188 368.425781 L 31.578125 368.375 L 31.539062 368.328125 L 31.496094 368.277344 L 31.457031 368.234375 L 31.410156 368.1875 L 31.367188 368.148438 L 31.265625 368.070312 L 31.214844 368.035156 L 31.105469 367.972656 L 31.046875 367.945312 L 30.984375 367.917969 L 30.925781 367.894531 L 30.863281 367.875 L 30.796875 367.855469 L 30.730469 367.839844 L 30.664062 367.828125 L 30.523438 367.804688 L 30.375 367.796875 L 30.195312 367.796875 L 30.097656 367.804688 L 30.003906 367.8125 L 29.914062 367.828125 L 29.828125 367.84375 L 29.746094 367.867188 L 29.667969 367.890625 L 29.59375 367.921875 L 29.453125 367.992188 L 29.390625 368.03125 L 29.328125 368.074219 L 29.265625 368.113281 L 29.207031 368.160156 L 29.042969 368.300781 L 28.992188 368.355469 L 28.945312 368.40625 L 28.898438 368.460938 L 26.890625 368.460938 L 27.25 362.652344 L 33.453125 362.652344 L 33.453125 364.183594 L 29.117188 364.183594 L 28.949219 366.792969 L 29.011719 366.738281 L 29.078125 366.6875 L 29.148438 366.636719 L 29.222656 366.585938 L 29.296875 366.539062 L 29.375 366.496094 L 29.457031 366.453125 L 29.542969 366.410156 L 29.632812 366.371094 L 29.820312 366.292969 L 29.917969 366.257812 L 30.019531 366.230469 L 30.125 366.203125 L 30.34375 366.164062 L 30.457031 366.148438 L 30.574219 366.140625 L 30.695312 366.132812 L 30.816406 366.132812 L 30.96875 366.136719 L 31.113281 366.140625 L 31.402344 366.171875 L 31.539062 366.195312 L 31.671875 366.222656 L 31.804688 366.253906 L 31.933594 366.292969 L 32.058594 366.335938 L 32.179688 366.382812 L 32.296875 366.433594 L 32.410156 366.488281 L 32.523438 366.546875 L 32.734375 366.679688 L 32.832031 366.75 L 32.929688 366.828125 L 33.023438 366.90625 L 33.113281 366.988281 L 33.277344 367.167969 L 33.355469 367.261719 L 33.429688 367.363281 L 33.5 367.464844 L 33.566406 367.570312 L 33.628906 367.679688 L 33.683594 367.792969 L 33.738281 367.910156 L 33.789062 368.03125 L 33.835938 368.152344 L 33.914062 368.410156 L 33.945312 368.539062 L 33.976562 368.675781 L 34 368.8125 L 34.019531 368.949219 L 34.035156 369.09375 L 34.046875 369.238281 L 34.050781 369.386719 Z M 34.054688 369.539062 "/>
<path style=" stroke:none;fill-rule:evenodd;fill:rgb(0%,100%,100%);fill-opacity:0.501961;" d="M 42.199219 367.808594 L 42.195312 368.101562 L 42.1875 368.382812 L 42.175781 368.65625 L 42.15625 368.917969 L 42.132812 369.175781 L 42.101562 369.417969 L 42.066406 369.65625 L 42.023438 369.882812 L 41.980469 370.097656 L 41.925781 370.308594 L 41.871094 370.503906 L 41.8125 370.695312 L 41.746094 370.878906 L 41.675781 371.054688 L 41.605469 371.222656 L 41.527344 371.382812 L 41.445312 371.535156 L 41.359375 371.679688 L 41.269531 371.816406 L 41.171875 371.949219 L 41.078125 372.070312 L 40.976562 372.183594 L 40.871094 372.289062 L 40.761719 372.390625 L 40.652344 372.484375 L 40.535156 372.570312 L 40.417969 372.652344 L 40.292969 372.722656 L 40.167969 372.789062 L 40.039062 372.847656 L 39.90625 372.898438 L 39.773438 372.945312 L 39.636719 372.988281 L 39.496094 373.023438 L 39.355469 373.050781 L 39.210938 373.078125 L 38.914062 373.109375 L 38.765625 373.117188 L 38.609375 373.121094 L 38.457031 373.117188 L 38.304688 373.109375 L 38.007812 373.078125 L 37.863281 373.050781 L 37.722656 373.023438 L 37.582031 372.988281 L 37.449219 372.945312 L 37.3125 372.898438 L 37.179688 372.847656 L 37.054688 372.792969 L 36.929688 372.726562 L 36.808594 372.65625 L 36.6875 372.574219 L 36.574219 372.488281 L 36.464844 372.398438 L 36.359375 372.296875 L 36.253906 372.191406 L 36.15625 372.078125 L 36.0625 371.957031 L 35.96875 371.824219 L 35.882812 371.6875 L 35.796875 371.542969 L 35.71875 371.390625 L 35.644531 371.230469 L 35.574219 371.0625 L 35.503906 370.886719 L 35.441406 370.703125 L 35.382812 370.511719 L 35.328125 370.316406 L 35.277344 370.105469 L 35.234375 369.886719 L 35.195312 369.660156 L 35.160156 369.425781 L 35.128906 369.179688 L 35.105469 368.925781 L 35.089844 368.660156 L 35.074219 368.386719 L 35.066406 368.101562 L 35.066406 367.503906 L 35.074219 367.207031 L 35.089844 366.921875 L 35.105469 366.648438 L 35.128906 366.386719 L 35.15625 366.132812 L 35.191406 365.890625 L 35.230469 365.660156 L 35.273438 365.441406 L 35.320312 365.230469 L 35.375 365.03125 L 35.433594 364.839844 L 35.5 364.652344 L 35.566406 364.476562 L 35.636719 364.3125 L 35.714844 364.152344 L 35.792969 364 L 35.878906 363.859375 L 35.96875 363.722656 L 36.0625 363.597656 L 36.15625 363.480469 L 36.257812 363.371094 L 36.363281 363.265625 L 36.472656 363.171875 L 36.582031 363.082031 L 36.699219 363 L 36.816406 362.925781 L 36.941406 362.859375 L 37.066406 362.800781 L 37.195312 362.75 L 37.332031 362.703125 L 37.46875 362.660156 L 37.609375 362.621094 L 37.75 362.589844 L 37.898438 362.5625 L 38.046875 362.539062 L 38.351562 362.507812 L 38.507812 362.503906 L 38.667969 362.5 L 38.964844 362.507812 L 39.253906 362.539062 L 39.394531 362.5625 L 39.535156 362.589844 L 39.671875 362.621094 L 39.804688 362.660156 L 39.9375 362.703125 L 40.066406 362.75 L 40.195312 362.800781 L 40.320312 362.859375 L 40.441406 362.925781 L 40.558594 363 L 40.671875 363.082031 L 40.785156 363.171875 L 40.890625 363.265625 L 40.992188 363.371094 L 41.09375 363.480469 L 41.1875 363.597656 L 41.28125 363.722656 L 41.371094 363.859375 L 41.453125 364 L 41.535156 364.152344 L 41.609375 364.3125 L 41.683594 364.476562 L 41.75 364.652344 L 41.8125 364.839844 L 41.871094 365.03125 L 41.925781 365.230469 L 41.980469 365.441406 L 42.023438 365.660156 L 42.066406 365.890625 L 42.101562 366.132812 L 42.132812 366.386719 L 42.15625 366.648438 L 42.175781 366.921875 L 42.1875 367.207031 L 42.195312 367.503906 Z M 40.132812 367.808594 L 40.132812 367.59375 L 40.128906 367.386719 L 40.125 367.1875 L 40.121094 366.996094 L 40.113281 366.8125 L 40.105469 366.636719 L 40.09375 366.46875 L 40.082031 366.308594 L 40.066406 366.152344 L 40.050781 366.007812 L 40.035156 365.867188 L 40.015625 365.734375 L 39.996094 365.605469 L 39.972656 365.480469 L 39.949219 365.367188 L 39.921875 365.253906 L 39.894531 365.148438 L 39.863281 365.050781 L 39.832031 364.960938 L 39.796875 364.871094 L 39.761719 364.789062 L 39.722656 364.714844 L 39.679688 364.640625 L 39.636719 364.574219 L 39.59375 364.511719 L 39.546875 364.457031 L 39.496094 364.402344 L 39.445312 364.355469 L 39.390625 364.316406 L 39.335938 364.28125 L 39.277344 364.246094 L 39.21875 364.21875 L 39.09375 364.171875 L 39.027344 364.152344 L 38.957031 364.136719 L 38.882812 364.125 L 38.808594 364.117188 L 38.734375 364.113281 L 38.652344 364.109375 L 38.488281 364.117188 L 38.40625 364.125 L 38.257812 364.15625 L 38.183594 364.175781 L 38.117188 364.195312 L 38.050781 364.222656 L 37.988281 364.253906 L 37.929688 364.285156 L 37.871094 364.324219 L 37.816406 364.363281 L 37.761719 364.410156 L 37.710938 364.460938 L 37.664062 364.519531 L 37.617188 364.582031 L 37.574219 364.648438 L 37.53125 364.71875 L 37.492188 364.796875 L 37.453125 364.878906 L 37.417969 364.96875 L 37.386719 365.0625 L 37.355469 365.160156 L 37.328125 365.265625 L 37.300781 365.378906 L 37.277344 365.496094 L 37.253906 365.617188 L 37.230469 365.746094 L 37.214844 365.882812 L 37.195312 366.023438 L 37.183594 366.167969 L 37.167969 366.320312 L 37.160156 366.480469 L 37.148438 366.648438 L 37.140625 366.824219 L 37.132812 367.007812 L 37.128906 367.195312 L 37.125 367.394531 L 37.125 367.597656 L 37.121094 367.808594 L 37.125 368.019531 L 37.125 368.21875 L 37.128906 368.414062 L 37.136719 368.601562 L 37.144531 368.785156 L 37.152344 368.957031 L 37.164062 369.125 L 37.175781 369.285156 L 37.1875 369.4375 L 37.203125 369.582031 L 37.21875 369.722656 L 37.238281 369.855469 L 37.261719 369.984375 L 37.285156 370.105469 L 37.308594 370.222656 L 37.335938 370.335938 L 37.363281 370.441406 L 37.425781 370.636719 L 37.460938 370.726562 L 37.496094 370.808594 L 37.574219 370.957031 L 37.617188 371.023438 L 37.664062 371.085938 L 37.710938 371.144531 L 37.761719 371.199219 L 37.8125 371.246094 L 37.867188 371.289062 L 37.921875 371.324219 L 37.980469 371.359375 L 38.039062 371.386719 L 38.105469 371.414062 L 38.171875 371.4375 L 38.238281 371.457031 L 38.3125 371.472656 L 38.386719 371.484375 L 38.460938 371.492188 L 38.542969 371.5 L 38.703125 371.5 L 38.78125 371.492188 L 38.855469 371.484375 L 38.929688 371.472656 L 38.996094 371.457031 L 39.066406 371.4375 L 39.132812 371.414062 L 39.195312 371.386719 L 39.253906 371.359375 L 39.3125 371.324219 L 39.367188 371.289062 L 39.421875 371.246094 L 39.476562 371.199219 L 39.523438 371.144531 L 39.574219 371.085938 L 39.617188 371.023438 L 39.664062 370.957031 L 39.742188 370.808594 L 39.78125 370.726562 L 39.816406 370.636719 L 39.851562 370.539062 L 39.882812 370.441406 L 39.910156 370.335938 L 39.9375 370.222656 L 39.964844 370.105469 L 39.988281 369.984375 L 40.007812 369.855469 L 40.027344 369.722656 L 40.046875 369.582031 L 40.0625 369.4375 L 40.078125 369.285156 L 40.089844 369.125 L 40.101562 368.957031 L 40.109375 368.785156 L 40.121094 368.601562 L 40.125 368.414062 L 40.128906 368.21875 L 40.132812 368.019531 Z M 40.132812 367.808594 "/>
<path style=" stroke:none;fill-rule:evenodd;fill:rgb(0%,100%,100%);fill-opacity:0.501961;" d="M 33.929688 265.335938 L 33.921875 265.640625 L 33.910156 265.789062 L 33.894531 265.9375 L 33.875 266.082031 L 33.851562 266.222656 L 33.820312 266.363281 L 33.789062 266.5 L 33.710938 266.765625 L 33.664062 266.890625 L 33.613281 267.015625 L 33.558594 267.132812 L 33.5 267.25 L 33.433594 267.363281 L 33.367188 267.472656 L 33.21875 267.683594 L 33.136719 267.78125 L 33.050781 267.878906 L 32.960938 267.96875 L 32.867188 268.054688 L 32.773438 268.136719 L 32.667969 268.214844 L 32.5625 268.289062 L 32.453125 268.359375 L 32.339844 268.425781 L 32.21875 268.488281 L 32.09375 268.546875 L 31.964844 268.601562 L 31.835938 268.652344 L 31.699219 268.695312 L 31.558594 268.734375 L 31.414062 268.765625 L 31.261719 268.792969 L 31.109375 268.816406 L 30.953125 268.835938 L 30.792969 268.847656 L 30.628906 268.855469 L 30.457031 268.859375 L 30.101562 268.847656 L 29.761719 268.808594 L 29.441406 268.742188 L 29.132812 268.65625 L 28.84375 268.539062 L 28.574219 268.398438 L 28.316406 268.234375 L 28.078125 268.042969 L 27.859375 267.828125 L 27.652344 267.585938 L 27.46875 267.316406 L 27.300781 267.023438 L 27.15625 266.703125 L 27.03125 266.363281 L 26.921875 265.996094 L 26.835938 265.601562 L 26.765625 265.1875 L 26.71875 264.746094 L 26.6875 264.28125 L 26.679688 263.789062 L 26.6875 263.25 L 26.71875 262.742188 L 26.769531 262.257812 L 26.835938 261.800781 L 26.925781 261.371094 L 27.035156 260.96875 L 27.164062 260.59375 L 27.3125 260.25 L 27.480469 259.929688 L 27.667969 259.636719 L 27.875 259.371094 L 28.101562 259.132812 L 28.339844 258.925781 L 28.601562 258.742188 L 28.875 258.589844 L 29.167969 258.460938 L 29.476562 258.363281 L 29.804688 258.292969 L 30.148438 258.253906 L 30.507812 258.238281 L 30.632812 258.238281 L 30.75 258.242188 L 30.984375 258.257812 L 31.097656 258.269531 L 31.207031 258.285156 L 31.316406 258.304688 L 31.527344 258.34375 L 31.730469 258.398438 L 31.828125 258.425781 L 32.015625 258.496094 L 32.109375 258.535156 L 32.195312 258.578125 L 32.285156 258.625 L 32.367188 258.671875 L 32.53125 258.78125 L 32.609375 258.839844 L 32.683594 258.902344 L 32.757812 258.96875 L 32.828125 259.035156 L 32.898438 259.109375 L 32.964844 259.183594 L 33.027344 259.261719 L 33.089844 259.34375 L 33.148438 259.429688 L 33.203125 259.519531 L 33.3125 259.707031 L 33.363281 259.804688 L 33.457031 260.015625 L 33.5 260.128906 L 33.539062 260.242188 L 33.617188 260.484375 L 33.652344 260.613281 L 31.710938 260.882812 L 31.679688 260.777344 L 31.644531 260.679688 L 31.605469 260.585938 L 31.5625 260.5 L 31.519531 260.417969 L 31.46875 260.34375 L 31.414062 260.273438 L 31.359375 260.210938 L 31.296875 260.15625 L 31.234375 260.105469 L 31.167969 260.058594 L 31.097656 260.019531 L 31.027344 259.984375 L 30.953125 259.953125 L 30.878906 259.925781 L 30.800781 259.902344 L 30.71875 259.886719 L 30.636719 259.875 L 30.550781 259.867188 L 30.464844 259.863281 L 30.304688 259.871094 L 30.148438 259.898438 L 30 259.9375 L 29.859375 259.996094 L 29.726562 260.070312 L 29.597656 260.164062 L 29.480469 260.269531 L 29.367188 260.394531 L 29.261719 260.535156 L 29.160156 260.691406 L 29.074219 260.867188 L 28.992188 261.058594 L 28.921875 261.265625 L 28.863281 261.492188 L 28.808594 261.734375 L 28.769531 261.992188 L 28.734375 262.269531 L 28.710938 262.566406 L 28.699219 262.875 L 28.691406 263.203125 L 28.761719 263.097656 L 28.835938 262.996094 L 28.914062 262.898438 L 28.996094 262.804688 L 29.085938 262.71875 L 29.179688 262.636719 L 29.382812 262.488281 L 29.492188 262.421875 L 29.726562 262.304688 L 29.847656 262.257812 L 29.972656 262.210938 L 30.101562 262.175781 L 30.234375 262.140625 L 30.367188 262.117188 L 30.503906 262.09375 L 30.644531 262.082031 L 30.789062 262.070312 L 31.070312 262.070312 L 31.203125 262.078125 L 31.332031 262.089844 L 31.457031 262.105469 L 31.582031 262.125 L 31.824219 262.179688 L 31.941406 262.214844 L 32.054688 262.253906 L 32.164062 262.296875 L 32.273438 262.34375 L 32.378906 262.390625 L 32.484375 262.445312 L 32.582031 262.503906 L 32.679688 262.566406 L 32.773438 262.632812 L 32.859375 262.703125 L 32.949219 262.777344 L 33.03125 262.859375 L 33.109375 262.941406 L 33.1875 263.027344 L 33.261719 263.113281 L 33.332031 263.207031 L 33.394531 263.304688 L 33.460938 263.40625 L 33.519531 263.511719 L 33.574219 263.617188 L 33.625 263.730469 L 33.71875 263.964844 L 33.757812 264.089844 L 33.792969 264.214844 L 33.824219 264.34375 L 33.851562 264.476562 L 33.875 264.613281 L 33.894531 264.75 L 33.910156 264.890625 L 33.921875 265.035156 L 33.925781 265.183594 Z M 31.863281 265.394531 L 31.863281 265.3125 L 31.859375 265.230469 L 31.855469 265.152344 L 31.847656 265.074219 L 31.839844 265 L 31.816406 264.851562 L 31.804688 264.78125 L 31.785156 264.714844 L 31.769531 264.648438 L 31.75 264.582031 L 31.726562 264.515625 L 31.703125 264.453125 L 31.648438 264.335938 L 31.585938 264.226562 L 31.550781 264.171875 L 31.515625 264.125 L 31.476562 264.074219 L 31.4375 264.03125 L 31.351562 263.945312 L 31.308594 263.90625 L 31.261719 263.867188 L 31.214844 263.835938 L 31.164062 263.800781 L 31.109375 263.769531 L 31.054688 263.742188 L 31 263.71875 L 30.941406 263.691406 L 30.882812 263.667969 L 30.820312 263.648438 L 30.757812 263.632812 L 30.691406 263.617188 L 30.625 263.605469 L 30.558594 263.597656 L 30.488281 263.589844 L 30.414062 263.585938 L 30.285156 263.585938 L 30.230469 263.589844 L 30.179688 263.59375 L 30.125 263.597656 L 30.070312 263.605469 L 29.90625 263.640625 L 29.796875 263.671875 L 29.746094 263.691406 L 29.691406 263.710938 L 29.640625 263.734375 L 29.589844 263.761719 L 29.496094 263.816406 L 29.449219 263.851562 L 29.402344 263.882812 L 29.359375 263.921875 L 29.316406 263.957031 L 29.273438 263.996094 L 29.195312 264.082031 L 29.125 264.175781 L 29.089844 264.226562 L 29.058594 264.277344 L 29.027344 264.332031 L 28.972656 264.449219 L 28.945312 264.511719 L 28.921875 264.574219 L 28.902344 264.640625 L 28.871094 264.78125 L 28.859375 264.855469 L 28.851562 264.929688 L 28.84375 265.007812 L 28.839844 265.089844 L 28.839844 265.261719 L 28.847656 265.433594 L 28.855469 265.515625 L 28.878906 265.679688 L 28.894531 265.761719 L 28.910156 265.839844 L 28.949219 265.996094 L 28.996094 266.144531 L 29.050781 266.285156 L 29.113281 266.417969 L 29.144531 266.480469 L 29.179688 266.542969 L 29.257812 266.660156 L 29.296875 266.714844 L 29.34375 266.769531 L 29.386719 266.816406 L 29.480469 266.910156 L 29.53125 266.953125 L 29.582031 266.992188 L 29.636719 267.03125 L 29.746094 267.101562 L 29.863281 267.15625 L 29.925781 267.179688 L 29.988281 267.199219 L 30.050781 267.214844 L 30.117188 267.230469 L 30.183594 267.242188 L 30.25 267.25 L 30.320312 267.253906 L 30.390625 267.253906 L 30.527344 267.25 L 30.65625 267.234375 L 30.78125 267.210938 L 30.898438 267.175781 L 31.011719 267.132812 L 31.117188 267.078125 L 31.214844 267.015625 L 31.308594 266.941406 L 31.394531 266.855469 L 31.476562 266.765625 L 31.550781 266.660156 L 31.617188 266.550781 L 31.675781 266.429688 L 31.722656 266.304688 L 31.765625 266.171875 L 31.800781 266.03125 L 31.828125 265.882812 L 31.847656 265.726562 L 31.859375 265.566406 Z M 31.863281 265.394531 "/>
<path style=" stroke:none;fill-rule:evenodd;fill:rgb(0%,100%,100%);fill-opacity:0.501961;" d="M 42.199219 263.546875 L 42.195312 263.839844 L 42.1875 264.121094 L 42.175781 264.394531 L 42.15625 264.660156 L 42.132812 264.914062 L 42.101562 265.15625 L 42.066406 265.394531 L 42.023438 265.621094 L 41.980469 265.835938 L 41.925781 266.046875 L 41.871094 266.246094 L 41.8125 266.433594 L 41.746094 266.617188 L 41.675781 266.792969 L 41.605469 266.960938 L 41.527344 267.121094 L 41.445312 267.273438 L 41.359375 267.417969 L 41.269531 267.558594 L 41.171875 267.6875 L 41.078125 267.808594 L 40.976562 267.921875 L 40.871094 268.027344 L 40.761719 268.128906 L 40.652344 268.222656 L 40.535156 268.308594 L 40.417969 268.390625 L 40.292969 268.460938 L 40.167969 268.527344 L 40.039062 268.585938 L 39.90625 268.640625 L 39.773438 268.683594 L 39.636719 268.726562 L 39.496094 268.761719 L 39.355469 268.789062 L 39.210938 268.816406 L 39.0625 268.835938 L 38.914062 268.847656 L 38.765625 268.855469 L 38.609375 268.859375 L 38.457031 268.855469 L 38.304688 268.847656 L 38.15625 268.835938 L 38.007812 268.816406 L 37.863281 268.789062 L 37.722656 268.761719 L 37.582031 268.726562 L 37.449219 268.683594 L 37.3125 268.640625 L 37.179688 268.585938 L 37.054688 268.53125 L 36.929688 268.464844 L 36.808594 268.394531 L 36.6875 268.316406 L 36.574219 268.230469 L 36.464844 268.136719 L 36.359375 268.035156 L 36.253906 267.929688 L 36.15625 267.816406 L 36.0625 267.695312 L 35.96875 267.5625 L 35.882812 267.425781 L 35.796875 267.28125 L 35.71875 267.128906 L 35.644531 266.96875 L 35.574219 266.800781 L 35.503906 266.625 L 35.441406 266.441406 L 35.382812 266.25 L 35.328125 266.054688 L 35.277344 265.84375 L 35.234375 265.628906 L 35.195312 265.398438 L 35.160156 265.164062 L 35.128906 264.917969 L 35.105469 264.664062 L 35.089844 264.398438 L 35.074219 264.125 L 35.066406 263.839844 L 35.066406 263.242188 L 35.074219 262.945312 L 35.089844 262.660156 L 35.105469 262.386719 L 35.128906 262.125 L 35.15625 261.871094 L 35.191406 261.628906 L 35.230469 261.398438 L 35.273438 261.179688 L 35.320312 260.96875 L 35.375 260.769531 L 35.433594 260.578125 L 35.5 260.394531 L 35.566406 260.21875 L 35.636719 260.050781 L 35.714844 259.890625 L 35.792969 259.738281 L 35.878906 259.597656 L 35.96875 259.460938 L 36.0625 259.335938 L 36.15625 259.21875 L 36.257812 259.109375 L 36.363281 259.003906 L 36.472656 258.910156 L 36.582031 258.820312 L 36.699219 258.738281 L 36.816406 258.664062 L 36.941406 258.597656 L 37.066406 258.539062 L 37.195312 258.488281 L 37.332031 258.441406 L 37.46875 258.398438 L 37.609375 258.359375 L 37.75 258.328125 L 37.898438 258.300781 L 38.046875 258.277344 L 38.199219 258.261719 L 38.351562 258.25 L 38.507812 258.242188 L 38.667969 258.238281 L 38.816406 258.242188 L 38.964844 258.25 L 39.109375 258.261719 L 39.253906 258.277344 L 39.394531 258.300781 L 39.535156 258.328125 L 39.671875 258.359375 L 39.804688 258.398438 L 39.9375 258.441406 L 40.066406 258.488281 L 40.195312 258.539062 L 40.320312 258.597656 L 40.441406 258.664062 L 40.558594 258.738281 L 40.671875 258.820312 L 40.785156 258.910156 L 40.890625 259.003906 L 40.992188 259.109375 L 41.09375 259.21875 L 41.1875 259.335938 L 41.28125 259.460938 L 41.371094 259.597656 L 41.453125 259.738281 L 41.535156 259.890625 L 41.609375 260.050781 L 41.683594 260.21875 L 41.75 260.394531 L 41.8125 260.578125 L 41.871094 260.769531 L 41.925781 260.96875 L 41.980469 261.179688 L 42.023438 261.398438 L 42.066406 261.628906 L 42.101562 261.871094 L 42.132812 262.125 L 42.15625 262.386719 L 42.175781 262.660156 L 42.1875 262.945312 L 42.195312 263.242188 Z M 40.132812 263.546875 L 40.132812 263.335938 L 40.128906 263.128906 L 40.125 262.929688 L 40.121094 262.738281 L 40.113281 262.550781 L 40.105469 262.375 L 40.09375 262.207031 L 40.082031 262.046875 L 40.066406 261.894531 L 40.050781 261.746094 L 40.035156 261.605469 L 40.015625 261.472656 L 39.996094 261.34375 L 39.972656 261.21875 L 39.949219 261.105469 L 39.921875 260.992188 L 39.894531 260.890625 L 39.863281 260.789062 L 39.832031 260.699219 L 39.761719 260.527344 L 39.722656 260.453125 L 39.679688 260.378906 L 39.636719 260.3125 L 39.59375 260.25 L 39.546875 260.195312 L 39.496094 260.140625 L 39.445312 260.097656 L 39.390625 260.054688 L 39.335938 260.019531 L 39.277344 259.984375 L 39.21875 259.957031 L 39.09375 259.910156 L 39.027344 259.890625 L 38.957031 259.875 L 38.882812 259.863281 L 38.808594 259.855469 L 38.734375 259.851562 L 38.570312 259.851562 L 38.488281 259.855469 L 38.40625 259.867188 L 38.332031 259.878906 L 38.257812 259.894531 L 38.183594 259.914062 L 38.050781 259.960938 L 37.988281 259.992188 L 37.871094 260.0625 L 37.816406 260.101562 L 37.761719 260.148438 L 37.710938 260.203125 L 37.664062 260.257812 L 37.617188 260.320312 L 37.574219 260.386719 L 37.53125 260.460938 L 37.492188 260.535156 L 37.453125 260.617188 L 37.417969 260.707031 L 37.386719 260.800781 L 37.355469 260.898438 L 37.328125 261.003906 L 37.300781 261.117188 L 37.277344 261.234375 L 37.253906 261.355469 L 37.230469 261.484375 L 37.214844 261.621094 L 37.195312 261.761719 L 37.183594 261.90625 L 37.167969 262.058594 L 37.160156 262.21875 L 37.148438 262.386719 L 37.140625 262.5625 L 37.132812 262.746094 L 37.128906 262.933594 L 37.125 263.132812 L 37.125 263.335938 L 37.121094 263.546875 L 37.125 263.757812 L 37.125 263.960938 L 37.128906 264.152344 L 37.136719 264.34375 L 37.144531 264.523438 L 37.152344 264.695312 L 37.164062 264.863281 L 37.175781 265.023438 L 37.1875 265.175781 L 37.203125 265.320312 L 37.21875 265.460938 L 37.238281 265.59375 L 37.261719 265.722656 L 37.285156 265.84375 L 37.308594 265.960938 L 37.335938 266.074219 L 37.363281 266.179688 L 37.394531 266.28125 L 37.425781 266.375 L 37.460938 266.464844 L 37.496094 266.546875 L 37.535156 266.625 L 37.574219 266.695312 L 37.617188 266.761719 L 37.664062 266.824219 L 37.710938 266.882812 L 37.761719 266.9375 L 37.8125 266.984375 L 37.867188 267.027344 L 37.921875 267.0625 L 37.980469 267.097656 L 38.039062 267.128906 L 38.171875 267.175781 L 38.238281 267.195312 L 38.3125 267.210938 L 38.460938 267.234375 L 38.542969 267.238281 L 38.703125 267.238281 L 38.78125 267.234375 L 38.929688 267.210938 L 38.996094 267.195312 L 39.066406 267.175781 L 39.132812 267.152344 L 39.195312 267.128906 L 39.253906 267.097656 L 39.3125 267.0625 L 39.367188 267.027344 L 39.421875 266.984375 L 39.476562 266.9375 L 39.523438 266.882812 L 39.574219 266.824219 L 39.617188 266.761719 L 39.664062 266.695312 L 39.703125 266.625 L 39.742188 266.546875 L 39.78125 266.464844 L 39.816406 266.375 L 39.851562 266.28125 L 39.882812 266.179688 L 39.910156 266.074219 L 39.9375 265.960938 L 39.964844 265.84375 L 39.988281 265.722656 L 40.007812 265.59375 L 40.027344 265.460938 L 40.046875 265.320312 L 40.0625 265.175781 L 40.078125 265.023438 L 40.089844 264.863281 L 40.101562 264.695312 L 40.109375 264.523438 L 40.121094 264.34375 L 40.128906 263.960938 L 40.132812 263.757812 Z M 40.132812 263.546875 "/>
<path style=" stroke:none;fill-rule:evenodd;fill:rgb(0%,100%,100%);fill-opacity:0.501961;" d="M 33.8125 155.765625 L 33.675781 155.984375 L 33.535156 156.199219 L 33.402344 156.417969 L 33.265625 156.632812 L 33.136719 156.847656 L 33.003906 157.058594 L 32.746094 157.480469 L 32.621094 157.6875 L 32.492188 157.894531 L 32.371094 158.101562 L 32.253906 158.308594 L 32.027344 158.722656 L 31.917969 158.933594 L 31.707031 159.347656 L 31.609375 159.558594 L 31.511719 159.765625 L 31.417969 159.976562 L 31.328125 160.183594 L 31.15625 160.605469 L 31.078125 160.816406 L 31.003906 161.03125 L 30.933594 161.246094 L 30.863281 161.464844 L 30.800781 161.683594 L 30.683594 162.121094 L 30.589844 162.566406 L 30.550781 162.792969 L 30.515625 163.023438 L 30.488281 163.253906 L 30.464844 163.488281 L 30.445312 163.722656 L 30.433594 163.964844 L 30.425781 164.207031 L 30.421875 164.449219 L 28.273438 164.449219 L 28.277344 164.207031 L 28.285156 163.964844 L 28.300781 163.726562 L 28.320312 163.492188 L 28.347656 163.257812 L 28.378906 163.027344 L 28.414062 162.800781 L 28.457031 162.574219 L 28.507812 162.351562 L 28.5625 162.128906 L 28.621094 161.910156 L 28.6875 161.6875 L 28.753906 161.472656 L 28.828125 161.253906 L 28.90625 161.039062 L 29.070312 160.609375 L 29.160156 160.398438 L 29.253906 160.1875 L 29.351562 159.976562 L 29.453125 159.765625 L 29.664062 159.351562 L 29.777344 159.140625 L 29.890625 158.9375 L 30.007812 158.730469 L 30.128906 158.523438 L 30.253906 158.320312 L 30.378906 158.113281 L 30.507812 157.910156 L 30.640625 157.703125 L 30.777344 157.5 L 30.910156 157.292969 L 31.046875 157.085938 L 31.1875 156.875 L 31.328125 156.667969 L 31.609375 156.246094 L 31.753906 156.035156 L 31.902344 155.824219 L 26.773438 155.824219 L 26.773438 154.132812 L 33.8125 154.132812 Z M 33.8125 155.765625 "/>
<path style=" stroke:none;fill-rule:evenodd;fill:rgb(0%,100%,100%);fill-opacity:0.501961;" d="M 42.199219 159.289062 L 42.195312 159.578125 L 42.1875 159.859375 L 42.175781 160.132812 L 42.15625 160.398438 L 42.132812 160.652344 L 42.101562 160.898438 L 42.066406 161.132812 L 42.023438 161.359375 L 41.980469 161.578125 L 41.925781 161.785156 L 41.871094 161.984375 L 41.8125 162.175781 L 41.746094 162.355469 L 41.675781 162.53125 L 41.605469 162.699219 L 41.527344 162.859375 L 41.445312 163.011719 L 41.359375 163.160156 L 41.269531 163.296875 L 41.171875 163.425781 L 41.078125 163.546875 L 40.976562 163.660156 L 40.871094 163.769531 L 40.761719 163.867188 L 40.652344 163.960938 L 40.535156 164.046875 L 40.417969 164.128906 L 40.292969 164.203125 L 40.167969 164.265625 L 40.039062 164.328125 L 39.90625 164.378906 L 39.773438 164.425781 L 39.636719 164.464844 L 39.496094 164.5 L 39.355469 164.53125 L 39.210938 164.554688 L 39.0625 164.574219 L 38.914062 164.585938 L 38.765625 164.59375 L 38.609375 164.597656 L 38.457031 164.59375 L 38.304688 164.585938 L 38.15625 164.574219 L 38.007812 164.554688 L 37.863281 164.53125 L 37.722656 164.5 L 37.582031 164.464844 L 37.449219 164.425781 L 37.3125 164.378906 L 37.179688 164.328125 L 37.054688 164.269531 L 36.929688 164.203125 L 36.808594 164.132812 L 36.6875 164.054688 L 36.574219 163.96875 L 36.464844 163.875 L 36.359375 163.773438 L 36.253906 163.667969 L 36.15625 163.554688 L 36.0625 163.433594 L 35.96875 163.304688 L 35.882812 163.164062 L 35.796875 163.019531 L 35.71875 162.867188 L 35.644531 162.707031 L 35.574219 162.539062 L 35.503906 162.363281 L 35.441406 162.179688 L 35.382812 161.992188 L 35.328125 161.792969 L 35.277344 161.582031 L 35.234375 161.367188 L 35.195312 161.140625 L 35.160156 160.902344 L 35.128906 160.65625 L 35.105469 160.402344 L 35.089844 160.136719 L 35.074219 159.863281 L 35.066406 159.578125 L 35.066406 158.980469 L 35.074219 158.683594 L 35.089844 158.398438 L 35.105469 158.125 L 35.128906 157.863281 L 35.15625 157.609375 L 35.191406 157.367188 L 35.230469 157.136719 L 35.273438 156.917969 L 35.320312 156.710938 L 35.375 156.507812 L 35.433594 156.316406 L 35.5 156.132812 L 35.566406 155.957031 L 35.636719 155.789062 L 35.714844 155.628906 L 35.792969 155.476562 L 35.878906 155.335938 L 35.96875 155.203125 L 36.0625 155.074219 L 36.15625 154.957031 L 36.257812 154.847656 L 36.363281 154.742188 L 36.472656 154.648438 L 36.582031 154.558594 L 36.699219 154.476562 L 36.816406 154.402344 L 36.941406 154.335938 L 37.066406 154.277344 L 37.195312 154.226562 L 37.332031 154.179688 L 37.46875 154.136719 L 37.609375 154.097656 L 37.75 154.066406 L 37.898438 154.039062 L 38.046875 154.015625 L 38.199219 154 L 38.351562 153.988281 L 38.507812 153.980469 L 38.667969 153.976562 L 38.816406 153.980469 L 38.964844 153.988281 L 39.109375 154 L 39.253906 154.015625 L 39.394531 154.039062 L 39.535156 154.066406 L 39.671875 154.097656 L 39.804688 154.136719 L 39.9375 154.179688 L 40.066406 154.226562 L 40.195312 154.277344 L 40.320312 154.335938 L 40.441406 154.402344 L 40.558594 154.476562 L 40.671875 154.558594 L 40.785156 154.648438 L 40.890625 154.742188 L 40.992188 154.847656 L 41.09375 154.957031 L 41.1875 155.074219 L 41.28125 155.203125 L 41.371094 155.335938 L 41.453125 155.476562 L 41.535156 155.628906 L 41.609375 155.789062 L 41.683594 155.957031 L 41.75 156.132812 L 41.8125 156.316406 L 41.871094 156.507812 L 41.925781 156.710938 L 41.980469 156.917969 L 42.023438 157.136719 L 42.066406 157.367188 L 42.101562 157.609375 L 42.132812 157.863281 L 42.15625 158.125 L 42.175781 158.398438 L 42.1875 158.683594 L 42.195312 158.980469 Z M 40.132812 159.289062 L 40.132812 159.074219 L 40.128906 158.867188 L 40.125 158.667969 L 40.121094 158.476562 L 40.113281 158.292969 L 40.105469 158.113281 L 40.09375 157.945312 L 40.082031 157.785156 L 40.066406 157.632812 L 40.050781 157.484375 L 40.035156 157.34375 L 40.015625 157.210938 L 39.996094 157.082031 L 39.972656 156.960938 L 39.949219 156.84375 L 39.921875 156.730469 L 39.894531 156.628906 L 39.863281 156.527344 L 39.832031 156.4375 L 39.796875 156.351562 L 39.761719 156.269531 L 39.722656 156.191406 L 39.679688 156.117188 L 39.636719 156.050781 L 39.59375 155.988281 L 39.546875 155.933594 L 39.496094 155.882812 L 39.445312 155.835938 L 39.390625 155.792969 L 39.335938 155.757812 L 39.21875 155.695312 L 39.09375 155.648438 L 39.027344 155.628906 L 38.957031 155.617188 L 38.808594 155.59375 L 38.734375 155.589844 L 38.570312 155.589844 L 38.488281 155.59375 L 38.40625 155.605469 L 38.332031 155.617188 L 38.257812 155.632812 L 38.183594 155.652344 L 38.050781 155.699219 L 37.988281 155.730469 L 37.871094 155.800781 L 37.761719 155.886719 L 37.710938 155.941406 L 37.664062 155.996094 L 37.617188 156.058594 L 37.574219 156.125 L 37.53125 156.199219 L 37.492188 156.273438 L 37.453125 156.359375 L 37.417969 156.445312 L 37.386719 156.539062 L 37.355469 156.640625 L 37.328125 156.746094 L 37.300781 156.855469 L 37.277344 156.972656 L 37.253906 157.097656 L 37.230469 157.226562 L 37.214844 157.359375 L 37.195312 157.5 L 37.183594 157.644531 L 37.167969 157.800781 L 37.160156 157.960938 L 37.148438 158.128906 L 37.140625 158.300781 L 37.132812 158.484375 L 37.128906 158.675781 L 37.125 158.871094 L 37.125 159.074219 L 37.121094 159.289062 L 37.125 159.496094 L 37.125 159.699219 L 37.128906 159.894531 L 37.136719 160.082031 L 37.144531 160.261719 L 37.152344 160.433594 L 37.164062 160.601562 L 37.175781 160.761719 L 37.1875 160.914062 L 37.203125 161.058594 L 37.21875 161.199219 L 37.238281 161.332031 L 37.261719 161.460938 L 37.285156 161.582031 L 37.308594 161.699219 L 37.335938 161.8125 L 37.363281 161.917969 L 37.394531 162.019531 L 37.425781 162.113281 L 37.460938 162.203125 L 37.496094 162.285156 L 37.535156 162.363281 L 37.574219 162.433594 L 37.617188 162.503906 L 37.664062 162.566406 L 37.710938 162.621094 L 37.761719 162.675781 L 37.8125 162.722656 L 37.867188 162.765625 L 37.921875 162.804688 L 38.039062 162.867188 L 38.171875 162.914062 L 38.238281 162.933594 L 38.3125 162.949219 L 38.460938 162.972656 L 38.625 162.980469 L 38.78125 162.972656 L 38.929688 162.949219 L 38.996094 162.933594 L 39.066406 162.914062 L 39.132812 162.890625 L 39.195312 162.867188 L 39.3125 162.804688 L 39.367188 162.765625 L 39.421875 162.722656 L 39.476562 162.675781 L 39.523438 162.621094 L 39.574219 162.566406 L 39.617188 162.503906 L 39.664062 162.433594 L 39.703125 162.363281 L 39.742188 162.285156 L 39.78125 162.203125 L 39.816406 162.113281 L 39.851562 162.019531 L 39.882812 161.917969 L 39.910156 161.8125 L 39.9375 161.699219 L 39.964844 161.582031 L 39.988281 161.460938 L 40.007812 161.332031 L 40.027344 161.199219 L 40.046875 161.058594 L 40.0625 160.914062 L 40.078125 160.761719 L 40.089844 160.601562 L 40.101562 160.433594 L 40.109375 160.261719 L 40.121094 160.082031 L 40.125 159.894531 L 40.128906 159.699219 L 40.132812 159.496094 Z M 40.132812 159.289062 "/>
<path style=" stroke:none;fill-rule:evenodd;fill:rgb(0%,100%,100%);fill-opacity:0.501961;" d="M 34.011719 57.28125 L 34.007812 57.414062 L 33.992188 57.671875 L 33.976562 57.796875 L 33.957031 57.921875 L 33.902344 58.164062 L 33.871094 58.28125 L 33.832031 58.398438 L 33.789062 58.511719 L 33.746094 58.621094 L 33.691406 58.730469 L 33.636719 58.832031 L 33.578125 58.933594 L 33.511719 59.03125 L 33.441406 59.128906 L 33.367188 59.21875 L 33.289062 59.308594 L 33.207031 59.394531 L 33.117188 59.480469 L 33.023438 59.558594 L 32.925781 59.632812 L 32.824219 59.703125 L 32.714844 59.773438 L 32.601562 59.839844 L 32.484375 59.898438 L 32.363281 59.957031 L 32.234375 60.011719 L 32.101562 60.0625 L 31.964844 60.109375 L 31.824219 60.152344 L 31.679688 60.191406 L 31.527344 60.226562 L 31.367188 60.253906 L 31.203125 60.277344 L 31.035156 60.300781 L 30.863281 60.316406 L 30.683594 60.328125 L 30.5 60.332031 L 30.3125 60.335938 L 30.125 60.332031 L 29.941406 60.328125 L 29.761719 60.316406 L 29.589844 60.300781 L 29.421875 60.277344 L 29.257812 60.253906 L 29.101562 60.226562 L 28.949219 60.191406 L 28.800781 60.152344 L 28.65625 60.109375 L 28.519531 60.0625 L 28.386719 60.011719 L 28.261719 59.957031 L 28.136719 59.898438 L 28.019531 59.839844 L 27.90625 59.773438 L 27.796875 59.703125 L 27.691406 59.632812 L 27.59375 59.558594 L 27.5 59.480469 L 27.410156 59.394531 L 27.328125 59.308594 L 27.246094 59.21875 L 27.171875 59.128906 L 27.101562 59.03125 L 27.039062 58.933594 L 26.976562 58.832031 L 26.921875 58.730469 L 26.871094 58.621094 L 26.824219 58.511719 L 26.746094 58.285156 L 26.683594 58.050781 L 26.660156 57.929688 L 26.640625 57.808594 L 26.625 57.683594 L 26.613281 57.554688 L 26.605469 57.296875 L 26.605469 57.183594 L 26.613281 57.074219 L 26.621094 56.96875 L 26.632812 56.867188 L 26.648438 56.765625 L 26.667969 56.667969 L 26.691406 56.570312 L 26.71875 56.476562 L 26.746094 56.386719 L 26.816406 56.214844 L 26.855469 56.128906 L 26.898438 56.046875 L 26.984375 55.890625 L 27.035156 55.816406 L 27.136719 55.675781 L 27.191406 55.609375 L 27.308594 55.484375 L 27.433594 55.367188 L 27.632812 55.214844 L 27.703125 55.167969 L 27.773438 55.125 L 27.921875 55.046875 L 28.078125 54.976562 L 28.152344 54.945312 L 28.230469 54.914062 L 28.308594 54.886719 L 28.390625 54.863281 L 28.546875 54.824219 L 28.628906 54.804688 L 28.707031 54.792969 L 28.707031 54.761719 L 28.621094 54.742188 L 28.457031 54.695312 L 28.375 54.667969 L 28.296875 54.636719 L 28.21875 54.601562 L 28.144531 54.566406 L 28.074219 54.53125 L 28 54.488281 L 27.929688 54.449219 L 27.796875 54.355469 L 27.734375 54.308594 L 27.671875 54.257812 L 27.613281 54.207031 L 27.554688 54.152344 L 27.5 54.097656 L 27.445312 54.039062 L 27.34375 53.921875 L 27.296875 53.859375 L 27.253906 53.792969 L 27.210938 53.730469 L 27.167969 53.664062 L 27.132812 53.597656 L 27.09375 53.527344 L 27.0625 53.457031 L 27.027344 53.386719 L 26.972656 53.238281 L 26.949219 53.164062 L 26.925781 53.085938 L 26.90625 53.007812 L 26.890625 52.929688 L 26.878906 52.851562 L 26.867188 52.769531 L 26.859375 52.691406 L 26.851562 52.609375 L 26.847656 52.53125 L 26.847656 52.324219 L 26.855469 52.207031 L 26.867188 52.089844 L 26.882812 51.972656 L 26.902344 51.859375 L 26.925781 51.75 L 26.953125 51.640625 L 27.023438 51.429688 L 27.066406 51.328125 L 27.113281 51.226562 L 27.164062 51.132812 L 27.28125 50.945312 L 27.34375 50.859375 L 27.414062 50.773438 L 27.484375 50.691406 L 27.640625 50.535156 L 27.726562 50.464844 L 27.90625 50.324219 L 28.003906 50.261719 L 28.105469 50.203125 L 28.210938 50.144531 L 28.429688 50.042969 L 28.546875 49.996094 L 28.671875 49.953125 L 28.796875 49.914062 L 28.925781 49.875 L 29.199219 49.8125 L 29.34375 49.785156 L 29.488281 49.765625 L 29.640625 49.746094 L 29.792969 49.734375 L 29.953125 49.722656 L 30.28125 49.714844 L 30.460938 49.71875 L 30.632812 49.722656 L 30.800781 49.734375 L 30.964844 49.75 L 31.121094 49.765625 L 31.273438 49.789062 L 31.421875 49.816406 L 31.5625 49.847656 L 31.703125 49.882812 L 31.835938 49.921875 L 31.964844 49.960938 L 32.089844 50.007812 L 32.210938 50.054688 L 32.324219 50.105469 L 32.433594 50.160156 L 32.542969 50.21875 L 32.644531 50.28125 L 32.738281 50.34375 L 32.832031 50.414062 L 32.917969 50.484375 L 33 50.558594 L 33.078125 50.632812 L 33.152344 50.714844 L 33.222656 50.796875 L 33.289062 50.878906 L 33.40625 51.058594 L 33.457031 51.152344 L 33.503906 51.25 L 33.546875 51.347656 L 33.585938 51.453125 L 33.621094 51.554688 L 33.652344 51.660156 L 33.679688 51.769531 L 33.703125 51.878906 L 33.722656 51.992188 L 33.734375 52.105469 L 33.746094 52.222656 L 33.75 52.34375 L 33.753906 52.460938 L 33.753906 52.542969 L 33.75 52.621094 L 33.742188 52.703125 L 33.734375 52.78125 L 33.722656 52.859375 L 33.707031 52.9375 L 33.667969 53.09375 L 33.648438 53.167969 L 33.621094 53.246094 L 33.597656 53.320312 L 33.566406 53.394531 L 33.503906 53.535156 L 33.46875 53.601562 L 33.429688 53.671875 L 33.390625 53.738281 L 33.304688 53.863281 L 33.253906 53.925781 L 33.207031 53.988281 L 33.15625 54.046875 L 33.101562 54.101562 L 33.042969 54.15625 L 32.988281 54.210938 L 32.863281 54.3125 L 32.796875 54.359375 L 32.730469 54.402344 L 32.664062 54.449219 L 32.59375 54.488281 L 32.519531 54.527344 L 32.449219 54.5625 L 32.371094 54.597656 L 32.292969 54.628906 L 32.214844 54.65625 L 32.132812 54.683594 L 32.050781 54.707031 L 31.964844 54.730469 L 31.878906 54.746094 L 31.878906 54.777344 L 31.96875 54.792969 L 32.058594 54.8125 L 32.144531 54.832031 L 32.230469 54.855469 L 32.316406 54.882812 L 32.398438 54.910156 L 32.5625 54.972656 L 32.644531 55.007812 L 32.800781 55.085938 L 32.949219 55.171875 L 33.019531 55.21875 L 33.089844 55.269531 L 33.15625 55.320312 L 33.222656 55.375 L 33.285156 55.433594 L 33.34375 55.492188 L 33.402344 55.554688 L 33.511719 55.679688 L 33.5625 55.75 L 33.609375 55.820312 L 33.65625 55.894531 L 33.699219 55.96875 L 33.742188 56.046875 L 33.78125 56.128906 L 33.816406 56.214844 L 33.878906 56.386719 L 33.90625 56.476562 L 33.953125 56.664062 L 33.984375 56.859375 L 33.996094 56.960938 L 34.003906 57.066406 L 34.007812 57.171875 Z M 31.636719 52.574219 L 31.636719 52.511719 L 31.632812 52.453125 L 31.632812 52.390625 L 31.625 52.335938 L 31.621094 52.277344 L 31.605469 52.167969 L 31.582031 52.058594 L 31.558594 51.957031 L 31.542969 51.90625 L 31.523438 51.859375 L 31.503906 51.808594 L 31.484375 51.765625 L 31.4375 51.679688 L 31.410156 51.636719 L 31.382812 51.597656 L 31.351562 51.5625 L 31.320312 51.523438 L 31.285156 51.488281 L 31.25 51.457031 L 31.210938 51.421875 L 31.171875 51.394531 L 31.128906 51.363281 L 31.082031 51.339844 L 31.035156 51.3125 L 30.984375 51.289062 L 30.933594 51.269531 L 30.882812 51.246094 L 30.824219 51.230469 L 30.769531 51.210938 L 30.644531 51.1875 L 30.578125 51.175781 L 30.507812 51.167969 L 30.359375 51.160156 L 30.207031 51.160156 L 30.066406 51.167969 L 29.996094 51.175781 L 29.808594 51.210938 L 29.753906 51.230469 L 29.699219 51.246094 L 29.644531 51.269531 L 29.59375 51.289062 L 29.546875 51.3125 L 29.5 51.339844 L 29.457031 51.363281 L 29.414062 51.394531 L 29.375 51.421875 L 29.335938 51.457031 L 29.300781 51.488281 L 29.265625 51.523438 L 29.234375 51.5625 L 29.203125 51.597656 L 29.175781 51.636719 L 29.152344 51.679688 L 29.125 51.722656 L 29.101562 51.765625 L 29.082031 51.808594 L 29.0625 51.859375 L 29.046875 51.90625 L 29.027344 51.957031 L 29.003906 52.058594 L 28.980469 52.167969 L 28.964844 52.277344 L 28.960938 52.335938 L 28.957031 52.390625 L 28.953125 52.453125 L 28.949219 52.511719 L 28.949219 52.625 L 28.953125 52.679688 L 28.953125 52.734375 L 28.957031 52.789062 L 28.960938 52.839844 L 28.96875 52.894531 L 28.972656 52.949219 L 28.980469 53 L 28.992188 53.054688 L 29 53.105469 L 29.011719 53.160156 L 29.042969 53.261719 L 29.0625 53.308594 L 29.082031 53.359375 L 29.101562 53.40625 L 29.125 53.449219 L 29.152344 53.496094 L 29.175781 53.539062 L 29.207031 53.582031 L 29.234375 53.625 L 29.269531 53.664062 L 29.339844 53.734375 L 29.382812 53.769531 L 29.421875 53.804688 L 29.46875 53.835938 L 29.515625 53.863281 L 29.5625 53.894531 L 29.617188 53.921875 L 29.726562 53.96875 L 29.789062 53.988281 L 29.851562 54.003906 L 29.917969 54.019531 L 29.988281 54.03125 L 30.058594 54.039062 L 30.136719 54.046875 L 30.214844 54.050781 L 30.382812 54.050781 L 30.464844 54.046875 L 30.621094 54.03125 L 30.691406 54.019531 L 30.761719 54.003906 L 30.824219 53.988281 L 30.886719 53.96875 L 30.945312 53.945312 L 31 53.921875 L 31.054688 53.894531 L 31.101562 53.863281 L 31.152344 53.832031 L 31.238281 53.769531 L 31.277344 53.734375 L 31.316406 53.695312 L 31.347656 53.65625 L 31.382812 53.617188 L 31.4375 53.53125 L 31.484375 53.445312 L 31.507812 53.398438 L 31.527344 53.351562 L 31.542969 53.300781 L 31.558594 53.253906 L 31.59375 53.101562 L 31.601562 53.046875 L 31.609375 52.996094 L 31.617188 52.941406 L 31.621094 52.890625 L 31.625 52.835938 L 31.628906 52.785156 L 31.632812 52.730469 L 31.636719 52.679688 Z M 31.878906 57.113281 L 31.878906 57.050781 L 31.867188 56.863281 L 31.859375 56.804688 L 31.851562 56.742188 L 31.84375 56.683594 L 31.832031 56.625 L 31.820312 56.5625 L 31.804688 56.503906 L 31.792969 56.449219 L 31.773438 56.390625 L 31.734375 56.28125 L 31.710938 56.230469 L 31.683594 56.179688 L 31.65625 56.132812 L 31.625 56.082031 L 31.59375 56.039062 L 31.554688 55.992188 L 31.519531 55.949219 L 31.480469 55.90625 L 31.4375 55.863281 L 31.394531 55.828125 L 31.347656 55.789062 L 31.296875 55.753906 L 31.1875 55.691406 L 31.128906 55.660156 L 31.066406 55.632812 L 31 55.609375 L 30.933594 55.582031 L 30.863281 55.5625 L 30.785156 55.542969 L 30.707031 55.53125 L 30.628906 55.515625 L 30.542969 55.507812 L 30.453125 55.5 L 30.363281 55.496094 L 30.179688 55.496094 L 30.097656 55.5 L 30.015625 55.507812 L 29.9375 55.515625 L 29.863281 55.53125 L 29.789062 55.542969 L 29.71875 55.5625 L 29.652344 55.582031 L 29.589844 55.609375 L 29.527344 55.632812 L 29.46875 55.660156 L 29.414062 55.691406 L 29.3125 55.753906 L 29.261719 55.789062 L 29.214844 55.828125 L 29.171875 55.863281 L 29.128906 55.90625 L 29.050781 55.992188 L 29.015625 56.039062 L 28.984375 56.085938 L 28.953125 56.136719 L 28.898438 56.238281 L 28.851562 56.347656 L 28.832031 56.402344 L 28.8125 56.460938 L 28.78125 56.578125 L 28.769531 56.640625 L 28.757812 56.699219 L 28.75 56.761719 L 28.742188 56.820312 L 28.734375 56.886719 L 28.726562 57.011719 L 28.722656 57.078125 L 28.722656 57.21875 L 28.726562 57.296875 L 28.730469 57.371094 L 28.734375 57.441406 L 28.742188 57.515625 L 28.75 57.585938 L 28.757812 57.652344 L 28.769531 57.722656 L 28.78125 57.789062 L 28.796875 57.851562 L 28.8125 57.917969 L 28.832031 57.976562 L 28.851562 58.039062 L 28.875 58.097656 L 28.957031 58.261719 L 28.988281 58.3125 L 29.023438 58.363281 L 29.058594 58.410156 L 29.097656 58.453125 L 29.140625 58.496094 L 29.183594 58.535156 L 29.230469 58.574219 L 29.277344 58.609375 L 29.328125 58.644531 L 29.4375 58.707031 L 29.496094 58.734375 L 29.558594 58.761719 L 29.621094 58.785156 L 29.753906 58.824219 L 29.902344 58.855469 L 29.980469 58.867188 L 30.0625 58.875 L 30.234375 58.882812 L 30.324219 58.886719 L 30.417969 58.882812 L 30.589844 58.875 L 30.667969 58.867188 L 30.746094 58.855469 L 30.894531 58.824219 L 31.027344 58.785156 L 31.085938 58.761719 L 31.148438 58.734375 L 31.257812 58.671875 L 31.308594 58.640625 L 31.355469 58.605469 L 31.402344 58.566406 L 31.445312 58.527344 L 31.488281 58.484375 L 31.527344 58.441406 L 31.597656 58.347656 L 31.660156 58.246094 L 31.6875 58.195312 L 31.710938 58.140625 L 31.757812 58.023438 L 31.773438 57.964844 L 31.792969 57.902344 L 31.804688 57.839844 L 31.820312 57.773438 L 31.832031 57.703125 L 31.84375 57.636719 L 31.851562 57.5625 L 31.859375 57.492188 L 31.867188 57.417969 L 31.875 57.269531 L 31.878906 57.191406 Z M 31.878906 57.113281 "/>
<path style=" stroke:none;fill-rule:evenodd;fill:rgb(0%,100%,100%);fill-opacity:0.501961;" d="M 42.199219 55.027344 L 42.195312 55.316406 L 42.1875 55.597656 L 42.175781 55.871094 L 42.15625 56.136719 L 42.132812 56.390625 L 42.101562 56.636719 L 42.066406 56.871094 L 42.023438 57.097656 L 41.980469 57.316406 L 41.925781 57.523438 L 41.871094 57.722656 L 41.8125 57.914062 L 41.746094 58.09375 L 41.675781 58.269531 L 41.605469 58.4375 L 41.527344 58.597656 L 41.445312 58.75 L 41.359375 58.898438 L 41.269531 59.035156 L 41.171875 59.164062 L 41.078125 59.285156 L 40.976562 59.398438 L 40.871094 59.507812 L 40.761719 59.605469 L 40.652344 59.699219 L 40.535156 59.789062 L 40.417969 59.867188 L 40.292969 59.941406 L 40.167969 60.007812 L 40.039062 60.066406 L 39.90625 60.117188 L 39.773438 60.164062 L 39.636719 60.203125 L 39.496094 60.238281 L 39.355469 60.269531 L 39.210938 60.292969 L 39.0625 60.3125 L 38.914062 60.324219 L 38.765625 60.332031 L 38.609375 60.335938 L 38.457031 60.332031 L 38.304688 60.324219 L 38.15625 60.3125 L 38.007812 60.292969 L 37.863281 60.269531 L 37.722656 60.238281 L 37.582031 60.203125 L 37.449219 60.164062 L 37.3125 60.117188 L 37.179688 60.066406 L 37.054688 60.007812 L 36.929688 59.941406 L 36.808594 59.871094 L 36.6875 59.792969 L 36.574219 59.707031 L 36.464844 59.613281 L 36.359375 59.511719 L 36.253906 59.40625 L 36.15625 59.292969 L 36.0625 59.171875 L 35.96875 59.042969 L 35.882812 58.902344 L 35.796875 58.757812 L 35.71875 58.605469 L 35.644531 58.445312 L 35.574219 58.277344 L 35.503906 58.101562 L 35.441406 57.917969 L 35.382812 57.730469 L 35.328125 57.53125 L 35.277344 57.324219 L 35.234375 57.105469 L 35.195312 56.878906 L 35.160156 56.640625 L 35.128906 56.394531 L 35.105469 56.140625 L 35.089844 55.875 L 35.074219 55.601562 L 35.066406 55.320312 L 35.066406 54.71875 L 35.074219 54.421875 L 35.089844 54.140625 L 35.105469 53.863281 L 35.128906 53.601562 L 35.15625 53.347656 L 35.191406 53.109375 L 35.230469 52.875 L 35.273438 52.65625 L 35.320312 52.449219 L 35.375 52.246094 L 35.433594 52.054688 L 35.5 51.871094 L 35.566406 51.695312 L 35.636719 51.527344 L 35.714844 51.367188 L 35.792969 51.21875 L 35.878906 51.074219 L 35.96875 50.941406 L 36.0625 50.816406 L 36.15625 50.695312 L 36.257812 50.585938 L 36.363281 50.484375 L 36.472656 50.386719 L 36.582031 50.296875 L 36.699219 50.21875 L 36.816406 50.144531 L 36.941406 50.078125 L 37.066406 50.015625 L 37.195312 49.964844 L 37.332031 49.917969 L 37.46875 49.875 L 37.75 49.804688 L 37.898438 49.777344 L 38.046875 49.753906 L 38.199219 49.738281 L 38.351562 49.726562 L 38.507812 49.71875 L 38.667969 49.714844 L 38.816406 49.71875 L 38.964844 49.726562 L 39.109375 49.738281 L 39.253906 49.753906 L 39.394531 49.777344 L 39.535156 49.804688 L 39.671875 49.839844 L 39.804688 49.875 L 39.9375 49.917969 L 40.066406 49.964844 L 40.195312 50.015625 L 40.320312 50.078125 L 40.441406 50.144531 L 40.558594 50.21875 L 40.671875 50.296875 L 40.785156 50.386719 L 40.890625 50.484375 L 40.992188 50.585938 L 41.09375 50.695312 L 41.1875 50.816406 L 41.28125 50.941406 L 41.371094 51.074219 L 41.453125 51.21875 L 41.535156 51.367188 L 41.609375 51.527344 L 41.683594 51.695312 L 41.75 51.871094 L 41.8125 52.054688 L 41.871094 52.246094 L 41.925781 52.449219 L 41.980469 52.65625 L 42.023438 52.875 L 42.066406 53.109375 L 42.101562 53.347656 L 42.132812 53.601562 L 42.15625 53.863281 L 42.175781 54.140625 L 42.1875 54.421875 L 42.195312 54.71875 Z M 40.132812 55.027344 L 40.132812 54.8125 L 40.128906 54.605469 L 40.125 54.40625 L 40.121094 54.214844 L 40.113281 54.03125 L 40.105469 53.851562 L 40.09375 53.683594 L 40.082031 53.523438 L 40.066406 53.371094 L 40.050781 53.222656 L 40.035156 53.082031 L 40.015625 52.949219 L 39.996094 52.820312 L 39.972656 52.699219 L 39.949219 52.582031 L 39.921875 52.472656 L 39.894531 52.367188 L 39.863281 52.269531 L 39.832031 52.175781 L 39.796875 52.089844 L 39.761719 52.007812 L 39.722656 51.929688 L 39.679688 51.855469 L 39.636719 51.789062 L 39.59375 51.726562 L 39.546875 51.671875 L 39.496094 51.621094 L 39.445312 51.574219 L 39.390625 51.53125 L 39.335938 51.496094 L 39.21875 51.433594 L 39.09375 51.386719 L 39.027344 51.371094 L 38.957031 51.355469 L 38.808594 51.332031 L 38.734375 51.328125 L 38.570312 51.328125 L 38.40625 51.34375 L 38.332031 51.355469 L 38.257812 51.371094 L 38.183594 51.390625 L 38.117188 51.414062 L 38.050781 51.441406 L 37.988281 51.46875 L 37.871094 51.539062 L 37.816406 51.582031 L 37.761719 51.628906 L 37.710938 51.679688 L 37.664062 51.734375 L 37.617188 51.796875 L 37.574219 51.863281 L 37.53125 51.9375 L 37.492188 52.015625 L 37.453125 52.097656 L 37.417969 52.183594 L 37.386719 52.277344 L 37.355469 52.378906 L 37.328125 52.484375 L 37.300781 52.59375 L 37.277344 52.710938 L 37.253906 52.835938 L 37.230469 52.964844 L 37.214844 53.097656 L 37.195312 53.238281 L 37.183594 53.382812 L 37.167969 53.539062 L 37.160156 53.699219 L 37.148438 53.867188 L 37.140625 54.039062 L 37.132812 54.222656 L 37.128906 54.414062 L 37.125 54.609375 L 37.125 54.8125 L 37.121094 55.027344 L 37.125 55.234375 L 37.125 55.4375 L 37.128906 55.632812 L 37.136719 55.820312 L 37.144531 56 L 37.152344 56.171875 L 37.164062 56.339844 L 37.175781 56.5 L 37.1875 56.652344 L 37.203125 56.796875 L 37.21875 56.9375 L 37.238281 57.070312 L 37.261719 57.199219 L 37.285156 57.320312 L 37.308594 57.4375 L 37.335938 57.550781 L 37.363281 57.65625 L 37.394531 57.757812 L 37.425781 57.851562 L 37.460938 57.941406 L 37.496094 58.023438 L 37.535156 58.101562 L 37.574219 58.171875 L 37.617188 58.242188 L 37.664062 58.304688 L 37.710938 58.359375 L 37.761719 58.414062 L 37.8125 58.460938 L 37.867188 58.503906 L 37.921875 58.542969 L 38.039062 58.605469 L 38.105469 58.632812 L 38.238281 58.671875 L 38.386719 58.703125 L 38.460938 58.710938 L 38.625 58.71875 L 38.78125 58.710938 L 38.855469 58.703125 L 38.929688 58.6875 L 38.996094 58.671875 L 39.066406 58.652344 L 39.132812 58.632812 L 39.195312 58.605469 L 39.3125 58.542969 L 39.367188 58.503906 L 39.421875 58.460938 L 39.476562 58.414062 L 39.523438 58.359375 L 39.574219 58.304688 L 39.617188 58.242188 L 39.664062 58.171875 L 39.703125 58.101562 L 39.742188 58.023438 L 39.78125 57.941406 L 39.816406 57.851562 L 39.851562 57.757812 L 39.882812 57.65625 L 39.910156 57.550781 L 39.9375 57.4375 L 39.964844 57.320312 L 39.988281 57.199219 L 40.007812 57.070312 L 40.027344 56.9375 L 40.046875 56.796875 L 40.0625 56.652344 L 40.078125 56.5 L 40.089844 56.339844 L 40.101562 56.171875 L 40.109375 56 L 40.121094 55.820312 L 40.125 55.632812 L 40.128906 55.4375 L 40.132812 55.234375 Z M 40.132812 55.027344 "/>
<path style="fill:none;stroke-width:3.200935;stroke-linecap:butt;stroke-linejoin:round;stroke:rgb(0%,100%,100%);stroke-opacity:1;stroke-miterlimit:10;" d="M 45.003906 472.074219 L 47.746094 472.074219 "/>
<path style="fill:none;stroke-width:3.200935;stroke-linecap:butt;stroke-linejoin:round;stroke:rgb(0%,100%,100%);stroke-opacity:1;stroke-miterlimit:10;" d="M 45.003906 367.8125 L 47.746094 367.8125 "/>
<path style="fill:none;stroke-width:3.200935;stroke-linecap:butt;stroke-linejoin:round;stroke:rgb(0%,100%,100%);stroke-opacity:1;stroke-miterlimit:10;" d="M 45.003906 263.550781 L 47.746094 263.550781 "/>
<path style="fill:none;stroke-width:3.200935;stroke-linecap:butt;stroke-linejoin:round;stroke:rgb(0%,100%,100%);stroke-opacity:1;stroke-miterlimit:10;" d="M 45.003906 159.289062 L 47.746094 159.289062 "/>
<path style="fill:none;stroke-width:3.200935;stroke-linecap:butt;stroke-linejoin:round;stroke:rgb(0%,100%,100%);stroke-opacity:1;stroke-miterlimit:10;" d="M 45.003906 55.03125 L 47.746094 55.03125 "/>
<path style="fill:none;stroke-width:3.200935;stroke-linecap:butt;stroke-linejoin:round;stroke:rgb(0%,100%,100%);stroke-opacity:1;stroke-miterlimit:10;" d="M 47.746094 498.519531 L 426.519531 498.519531 "/>
<path style=" stroke:none;fill-rule:evenodd;fill:rgb(0%,100%,100%);fill-opacity:0.698039;" d="M 23.390625 69.660156 L 8.898438 69.660156 L 8.898438 66.914062 L 23.390625 66.914062 Z M 23.390625 69.660156 "/>
<path style=" stroke:none;fill-rule:evenodd;fill:rgb(0%,100%,100%);fill-opacity:0.698039;" d="M 10.917969 64.101562 L 8.898438 64.101562 L 8.898438 61.359375 L 10.917969 61.359375 Z M 23.390625 64.101562 L 12.824219 64.101562 L 12.824219 61.359375 L 23.390625 61.359375 Z M 23.390625 64.101562 "/>
<path style=" stroke:none;fill-rule:evenodd;fill:rgb(0%,100%,100%);fill-opacity:0.698039;" d="M 14.679688 55.324219 L 23.390625 55.324219 L 23.390625 58.058594 L 14.679688 58.058594 L 14.679688 59.601562 L 12.824219 59.601562 L 12.824219 58.058594 L 11.71875 58.058594 L 11.597656 58.054688 L 11.480469 58.050781 L 11.363281 58.042969 L 11.25 58.035156 L 11.136719 58.019531 L 11.027344 58.003906 L 10.917969 57.984375 L 10.8125 57.964844 L 10.707031 57.9375 L 10.605469 57.910156 L 10.503906 57.878906 L 10.40625 57.84375 L 10.308594 57.804688 L 10.214844 57.761719 L 10.121094 57.714844 L 9.949219 57.605469 L 9.867188 57.546875 L 9.785156 57.480469 L 9.707031 57.414062 L 9.632812 57.339844 L 9.5625 57.261719 L 9.496094 57.179688 L 9.429688 57.09375 L 9.367188 57 L 9.3125 56.902344 L 9.257812 56.800781 L 9.203125 56.695312 L 9.15625 56.582031 L 9.113281 56.464844 L 9.070312 56.34375 L 9.035156 56.214844 L 9.003906 56.082031 L 8.976562 55.941406 L 8.949219 55.796875 L 8.933594 55.644531 L 8.917969 55.488281 L 8.90625 55.324219 L 8.898438 55.15625 L 8.898438 54.792969 L 8.902344 54.703125 L 8.910156 54.515625 L 8.914062 54.425781 L 8.921875 54.335938 L 8.929688 54.242188 L 8.945312 54.0625 L 8.957031 53.972656 L 8.964844 53.882812 L 8.988281 53.710938 L 8.996094 53.628906 L 9.007812 53.546875 L 9.03125 53.390625 L 9.054688 53.242188 L 10.820312 53.242188 L 10.8125 53.277344 L 10.804688 53.316406 L 10.800781 53.351562 L 10.785156 53.429688 L 10.78125 53.472656 L 10.777344 53.511719 L 10.769531 53.554688 L 10.765625 53.597656 L 10.761719 53.644531 L 10.757812 53.6875 L 10.753906 53.726562 L 10.746094 53.769531 L 10.742188 53.8125 L 10.742188 53.851562 L 10.734375 53.929688 L 10.734375 54.117188 L 10.738281 54.191406 L 10.742188 54.261719 L 10.746094 54.328125 L 10.753906 54.394531 L 10.761719 54.457031 L 10.773438 54.515625 L 10.796875 54.625 L 10.8125 54.679688 L 10.828125 54.726562 L 10.847656 54.773438 L 10.886719 54.859375 L 10.933594 54.9375 L 10.988281 55.007812 L 11.015625 55.039062 L 11.046875 55.070312 L 11.078125 55.097656 L 11.183594 55.167969 L 11.222656 55.1875 L 11.265625 55.207031 L 11.351562 55.238281 L 11.398438 55.253906 L 11.492188 55.277344 L 11.644531 55.300781 L 11.699219 55.308594 L 11.753906 55.3125 L 11.929688 55.324219 L 12.824219 55.324219 L 12.824219 53.242188 L 14.679688 53.242188 Z M 14.679688 55.324219 "/>
<path style=" stroke:none;fill-rule:evenodd;fill:rgb(0%,100%,100%);fill-opacity:0.698039;" d="M 23.585938 47.558594 L 23.582031 47.785156 L 23.570312 48.007812 L 23.554688 48.226562 L 23.53125 48.4375 L 23.5 48.644531 L 23.464844 48.851562 L 23.421875 49.050781 L 23.371094 49.242188 L 23.316406 49.433594 L 23.253906 49.621094 L 23.179688 49.800781 L 23.101562 49.972656 L 23.015625 50.140625 L 22.925781 50.304688 L 22.824219 50.460938 L 22.71875 50.613281 L 22.605469 50.761719 L 22.488281 50.90625 L 22.359375 51.042969 L 22.226562 51.171875 L 22.085938 51.296875 L 21.9375 51.417969 L 21.78125 51.53125 L 21.617188 51.640625 L 21.449219 51.742188 L 21.273438 51.835938 L 21.089844 51.925781 L 20.898438 52.011719 L 20.703125 52.085938 L 20.5 52.160156 L 20.285156 52.222656 L 20.066406 52.28125 L 19.839844 52.332031 L 19.605469 52.378906 L 19.367188 52.414062 L 19.117188 52.445312 L 18.863281 52.46875 L 18.601562 52.488281 L 18.332031 52.496094 L 18.058594 52.5 L 17.757812 52.496094 L 17.472656 52.484375 L 17.191406 52.464844 L 16.921875 52.4375 L 16.664062 52.402344 L 16.414062 52.355469 L 16.171875 52.304688 L 15.941406 52.246094 L 15.71875 52.175781 L 15.507812 52.101562 L 15.304688 52.015625 L 15.109375 51.925781 L 14.921875 51.828125 L 14.746094 51.730469 L 14.574219 51.621094 L 14.410156 51.511719 L 14.253906 51.390625 L 14.109375 51.269531 L 13.96875 51.140625 L 13.839844 51.007812 L 13.714844 50.867188 L 13.59375 50.722656 L 13.484375 50.574219 L 13.382812 50.417969 L 13.285156 50.261719 L 13.195312 50.101562 L 13.113281 49.9375 L 13.039062 49.765625 L 12.972656 49.59375 L 12.910156 49.414062 L 12.855469 49.234375 L 12.808594 49.050781 L 12.765625 48.867188 L 12.730469 48.679688 L 12.699219 48.492188 L 12.671875 48.300781 L 12.652344 48.109375 L 12.628906 47.71875 L 12.628906 47.519531 L 12.632812 47.273438 L 12.644531 47.035156 L 12.667969 46.804688 L 12.699219 46.578125 L 12.738281 46.363281 L 12.785156 46.152344 L 12.84375 45.953125 L 12.910156 45.757812 L 12.984375 45.570312 L 13.066406 45.390625 L 13.15625 45.21875 L 13.253906 45.050781 L 13.355469 44.886719 L 13.46875 44.730469 L 13.585938 44.582031 L 13.710938 44.441406 L 13.839844 44.304688 L 13.980469 44.175781 L 14.125 44.054688 L 14.277344 43.9375 L 14.4375 43.828125 L 14.601562 43.722656 L 14.773438 43.625 L 14.953125 43.53125 L 15.136719 43.445312 L 15.328125 43.367188 L 15.523438 43.292969 L 15.726562 43.222656 L 15.9375 43.164062 L 16.152344 43.105469 L 16.371094 43.054688 L 16.597656 43.011719 L 16.824219 42.972656 L 17.058594 42.9375 L 17.296875 42.910156 L 17.539062 42.886719 L 17.785156 42.867188 L 18.039062 42.851562 L 18.292969 42.84375 L 18.632812 42.84375 L 18.632812 49.621094 L 18.765625 49.617188 L 18.894531 49.617188 L 19.152344 49.601562 L 19.277344 49.589844 L 19.398438 49.578125 L 19.640625 49.546875 L 19.757812 49.523438 L 19.875 49.503906 L 20.09375 49.449219 L 20.304688 49.386719 L 20.5 49.308594 L 20.6875 49.222656 L 20.859375 49.121094 L 20.941406 49.066406 L 21.019531 49.011719 L 21.160156 48.886719 L 21.230469 48.820312 L 21.292969 48.75 L 21.410156 48.601562 L 21.464844 48.519531 L 21.515625 48.4375 L 21.558594 48.351562 L 21.597656 48.261719 L 21.632812 48.171875 L 21.664062 48.074219 L 21.691406 47.972656 L 21.710938 47.871094 L 21.726562 47.765625 L 21.738281 47.652344 L 21.746094 47.539062 L 21.75 47.421875 L 21.746094 47.28125 L 21.738281 47.144531 L 21.722656 47.011719 L 21.699219 46.886719 L 21.671875 46.765625 L 21.640625 46.652344 L 21.601562 46.539062 L 21.554688 46.433594 L 21.503906 46.335938 L 21.445312 46.242188 L 21.378906 46.152344 L 21.308594 46.066406 L 21.230469 45.988281 L 21.144531 45.917969 L 21.050781 45.847656 L 20.953125 45.785156 L 20.847656 45.726562 L 20.734375 45.675781 L 20.613281 45.628906 L 20.488281 45.585938 L 20.714844 43 L 20.804688 43.035156 L 20.894531 43.074219 L 20.988281 43.117188 L 21.175781 43.210938 L 21.273438 43.261719 L 21.371094 43.316406 L 21.46875 43.375 L 21.570312 43.433594 L 21.671875 43.496094 L 21.773438 43.5625 L 21.871094 43.628906 L 21.96875 43.703125 L 22.066406 43.78125 L 22.160156 43.863281 L 22.253906 43.949219 L 22.34375 44.039062 L 22.433594 44.132812 L 22.523438 44.234375 L 22.609375 44.335938 L 22.691406 44.445312 L 22.769531 44.558594 L 22.847656 44.675781 L 22.921875 44.800781 L 22.992188 44.929688 L 23.0625 45.066406 L 23.128906 45.203125 L 23.191406 45.347656 L 23.253906 45.5 L 23.3125 45.65625 L 23.363281 45.816406 L 23.410156 45.980469 L 23.449219 46.15625 L 23.488281 46.335938 L 23.515625 46.523438 L 23.542969 46.714844 L 23.558594 46.917969 L 23.574219 47.125 L 23.582031 47.339844 Z M 14.355469 47.558594 L 14.359375 47.644531 L 14.363281 47.726562 L 14.371094 47.808594 L 14.378906 47.886719 L 14.394531 47.96875 L 14.410156 48.046875 L 14.429688 48.125 L 14.449219 48.199219 L 14.476562 48.277344 L 14.503906 48.351562 L 14.53125 48.421875 L 14.566406 48.492188 L 14.601562 48.558594 L 14.640625 48.625 L 14.683594 48.691406 L 14.730469 48.753906 L 14.78125 48.8125 L 14.890625 48.929688 L 14.953125 48.984375 L 15.015625 49.035156 L 15.082031 49.085938 L 15.222656 49.179688 L 15.300781 49.222656 L 15.382812 49.265625 L 15.554688 49.34375 L 15.742188 49.414062 L 15.945312 49.476562 L 16.164062 49.523438 L 16.398438 49.5625 L 16.648438 49.585938 L 16.914062 49.601562 L 16.914062 45.5 L 16.664062 45.519531 L 16.429688 45.546875 L 16.207031 45.585938 L 15.996094 45.636719 L 15.796875 45.691406 L 15.613281 45.757812 L 15.441406 45.832031 L 15.28125 45.917969 L 15.132812 46.011719 L 15 46.113281 L 14.878906 46.226562 L 14.769531 46.34375 L 14.671875 46.46875 L 14.589844 46.601562 L 14.515625 46.742188 L 14.460938 46.890625 L 14.414062 47.046875 L 14.382812 47.210938 L 14.363281 47.382812 Z M 14.355469 47.558594 "/>
<path style=" stroke:none;fill-rule:evenodd;fill:rgb(0%,100%,100%);fill-opacity:0.698039;" d="M 23.390625 40.820312 L 9.628906 40.820312 L 9.628906 30 L 11.855469 30 L 11.855469 37.941406 L 15.3125 37.941406 L 15.3125 30.597656 L 17.539062 30.597656 L 17.539062 37.941406 L 21.164062 37.941406 L 21.164062 29.601562 L 23.390625 29.601562 Z M 23.390625 40.820312 "/>
<path style=" stroke:none;fill-rule:evenodd;fill:rgb(0%,100%,100%);fill-opacity:0.698039;" d="M 23.390625 20.820312 L 19.5625 23.28125 L 23.390625 25.761719 L 23.390625 28.683594 L 17.929688 24.816406 L 12.824219 28.496094 L 12.824219 25.539062 L 16.28125 23.28125 L 12.824219 21.035156 L 12.824219 18.058594 L 17.902344 21.738281 L 23.390625 17.84375 Z M 23.390625 20.820312 "/>
<path style=" stroke:none;fill-rule:evenodd;fill:rgb(0%,100%,100%);fill-opacity:0.698039;" d="M 18.058594 6.300781 L 18.296875 6.300781 L 18.53125 6.308594 L 18.761719 6.320312 L 18.988281 6.339844 L 19.210938 6.359375 L 19.433594 6.386719 L 19.648438 6.417969 L 20.070312 6.496094 L 20.273438 6.542969 L 20.476562 6.59375 L 20.667969 6.648438 L 20.859375 6.707031 L 21.042969 6.773438 L 21.21875 6.84375 L 21.390625 6.921875 L 21.558594 7 L 21.71875 7.085938 L 21.875 7.179688 L 22.023438 7.277344 L 22.164062 7.378906 L 22.304688 7.488281 L 22.433594 7.601562 L 22.558594 7.71875 L 22.675781 7.84375 L 22.789062 7.972656 L 22.894531 8.109375 L 22.996094 8.25 L 23.085938 8.394531 L 23.175781 8.546875 L 23.253906 8.699219 L 23.324219 8.863281 L 23.382812 9.027344 L 23.4375 9.199219 L 23.480469 9.378906 L 23.519531 9.5625 L 23.546875 9.75 L 23.570312 9.945312 L 23.582031 10.144531 L 23.585938 10.351562 L 23.582031 10.445312 L 23.582031 10.539062 L 23.574219 10.632812 L 23.570312 10.726562 L 23.558594 10.820312 L 23.550781 10.914062 L 23.535156 11.007812 L 23.523438 11.101562 L 23.503906 11.195312 L 23.488281 11.289062 L 23.464844 11.382812 L 23.445312 11.472656 L 23.390625 11.652344 L 23.359375 11.738281 L 23.328125 11.828125 L 23.257812 12 L 23.214844 12.085938 L 23.175781 12.167969 L 23.128906 12.253906 L 23.078125 12.335938 L 23.027344 12.414062 L 22.976562 12.496094 L 22.859375 12.652344 L 22.796875 12.726562 L 22.734375 12.804688 L 22.667969 12.878906 L 22.597656 12.949219 L 22.523438 13.019531 L 22.449219 13.085938 L 22.367188 13.152344 L 22.195312 13.277344 L 22.105469 13.335938 L 22.011719 13.394531 L 21.914062 13.449219 L 21.8125 13.503906 L 21.710938 13.554688 L 21.710938 13.613281 L 21.722656 13.613281 L 21.734375 13.609375 L 21.753906 13.609375 L 21.773438 13.605469 L 21.796875 13.605469 L 21.820312 13.601562 L 21.851562 13.601562 L 21.882812 13.597656 L 21.917969 13.597656 L 21.953125 13.59375 L 21.992188 13.59375 L 22.035156 13.589844 L 22.078125 13.589844 L 22.121094 13.585938 L 22.167969 13.585938 L 22.214844 13.582031 L 22.261719 13.582031 L 22.308594 13.578125 L 22.359375 13.578125 L 22.414062 13.574219 L 22.464844 13.574219 L 22.515625 13.570312 L 22.621094 13.570312 L 22.675781 13.566406 L 22.960938 13.566406 L 23.015625 13.5625 L 23.070312 13.5625 L 23.125 13.558594 L 23.285156 13.558594 L 23.335938 13.554688 L 27.539062 13.554688 L 27.539062 16.300781 L 14.785156 16.300781 L 14.632812 16.304688 L 14.488281 16.308594 L 14.34375 16.308594 L 14.207031 16.3125 L 14.070312 16.320312 L 13.9375 16.324219 L 13.808594 16.328125 L 13.683594 16.332031 L 13.566406 16.335938 L 13.453125 16.339844 L 13.347656 16.347656 L 13.246094 16.351562 L 13.148438 16.355469 L 13.058594 16.359375 L 12.976562 16.367188 L 12.894531 16.371094 L 12.824219 16.378906 L 12.824219 13.710938 L 12.855469 13.703125 L 12.875 13.699219 L 12.921875 13.691406 L 12.949219 13.6875 L 12.980469 13.683594 L 13.085938 13.671875 L 13.125 13.667969 L 13.167969 13.660156 L 13.296875 13.648438 L 13.4375 13.636719 L 13.484375 13.636719 L 13.636719 13.625 L 13.691406 13.621094 L 13.742188 13.621094 L 13.792969 13.617188 L 13.902344 13.609375 L 13.953125 13.609375 L 14.007812 13.605469 L 14.0625 13.605469 L 14.117188 13.601562 L 14.171875 13.601562 L 14.222656 13.597656 L 14.367188 13.597656 L 14.414062 13.59375 L 14.542969 13.59375 L 14.542969 13.554688 L 14.339844 13.453125 L 14.148438 13.339844 L 13.96875 13.222656 L 13.800781 13.097656 L 13.644531 12.964844 L 13.503906 12.824219 L 13.371094 12.675781 L 13.25 12.519531 L 13.144531 12.359375 L 13.046875 12.1875 L 12.960938 12.011719 L 12.886719 11.828125 L 12.820312 11.640625 L 12.761719 11.449219 L 12.710938 11.25 L 12.671875 11.046875 L 12.640625 10.835938 L 12.617188 10.621094 L 12.601562 10.402344 L 12.597656 10.175781 L 12.601562 9.976562 L 12.613281 9.785156 L 12.636719 9.597656 L 12.664062 9.414062 L 12.699219 9.238281 L 12.746094 9.066406 L 12.800781 8.902344 L 12.859375 8.742188 L 12.929688 8.585938 L 13.007812 8.4375 L 13.09375 8.292969 L 13.183594 8.15625 L 13.28125 8.023438 L 13.386719 7.894531 L 13.496094 7.773438 L 13.613281 7.65625 L 13.734375 7.542969 L 13.863281 7.433594 L 14 7.332031 L 14.140625 7.238281 L 14.289062 7.144531 L 14.441406 7.054688 L 14.601562 6.972656 L 14.765625 6.894531 L 14.933594 6.820312 L 15.109375 6.753906 L 15.292969 6.691406 L 15.480469 6.632812 L 15.671875 6.582031 L 16.070312 6.488281 L 16.277344 6.449219 L 16.484375 6.414062 L 16.699219 6.382812 L 16.914062 6.359375 L 17.136719 6.335938 L 17.359375 6.320312 L 17.589844 6.308594 L 17.820312 6.300781 Z M 18.058594 9.160156 L 17.707031 9.167969 L 17.371094 9.183594 L 17.058594 9.210938 L 16.761719 9.25 L 16.484375 9.296875 L 16.226562 9.359375 L 15.988281 9.429688 L 15.765625 9.511719 L 15.566406 9.605469 L 15.382812 9.707031 L 15.214844 9.824219 L 15.066406 9.949219 L 14.933594 10.085938 L 14.820312 10.230469 L 14.722656 10.390625 L 14.644531 10.558594 L 14.582031 10.738281 L 14.539062 10.925781 L 14.511719 11.128906 L 14.503906 11.339844 L 14.503906 11.421875 L 14.519531 11.585938 L 14.53125 11.667969 L 14.546875 11.75 L 14.566406 11.832031 L 14.589844 11.914062 L 14.644531 12.078125 L 14.679688 12.160156 L 14.714844 12.238281 L 14.753906 12.316406 L 14.800781 12.390625 L 14.851562 12.46875 L 14.90625 12.539062 L 14.96875 12.613281 L 15.105469 12.75 L 15.183594 12.816406 L 15.265625 12.882812 L 15.347656 12.941406 L 15.441406 13.003906 L 15.535156 13.058594 L 15.746094 13.167969 L 15.863281 13.21875 L 15.980469 13.265625 L 16.109375 13.3125 L 16.238281 13.355469 L 16.378906 13.398438 L 16.519531 13.4375 L 16.671875 13.46875 L 16.828125 13.5 L 16.992188 13.523438 L 17.164062 13.546875 L 17.34375 13.5625 L 17.53125 13.578125 L 17.726562 13.585938 L 17.925781 13.59375 L 18.339844 13.59375 L 18.535156 13.585938 L 18.726562 13.578125 L 18.910156 13.5625 L 19.085938 13.546875 L 19.253906 13.523438 L 19.417969 13.5 L 19.574219 13.46875 L 19.722656 13.4375 L 19.863281 13.398438 L 20 13.359375 L 20.25 13.273438 L 20.367188 13.222656 L 20.480469 13.175781 L 20.585938 13.121094 L 20.6875 13.070312 L 20.875 12.953125 L 21.039062 12.828125 L 21.113281 12.757812 L 21.183594 12.691406 L 21.25 12.621094 L 21.308594 12.550781 L 21.367188 12.476562 L 21.417969 12.402344 L 21.464844 12.324219 L 21.507812 12.25 L 21.542969 12.167969 L 21.574219 12.089844 L 21.605469 12.007812 L 21.628906 11.929688 L 21.667969 11.765625 L 21.683594 11.683594 L 21.695312 11.605469 L 21.703125 11.523438 L 21.710938 11.359375 L 21.707031 11.253906 L 21.703125 11.152344 L 21.691406 11.050781 L 21.675781 10.957031 L 21.660156 10.859375 L 21.636719 10.769531 L 21.609375 10.675781 L 21.578125 10.589844 L 21.542969 10.503906 L 21.503906 10.421875 L 21.460938 10.339844 L 21.410156 10.261719 L 21.355469 10.1875 L 21.296875 10.113281 L 21.234375 10.042969 L 21.167969 9.976562 L 21.09375 9.914062 L 21.015625 9.851562 L 20.9375 9.792969 L 20.851562 9.738281 L 20.757812 9.683594 L 20.660156 9.628906 L 20.558594 9.578125 L 20.453125 9.53125 L 20.339844 9.488281 L 20.222656 9.445312 L 20.101562 9.40625 L 19.976562 9.371094 L 19.84375 9.339844 L 19.707031 9.308594 L 19.566406 9.28125 L 19.421875 9.253906 L 19.269531 9.234375 L 19.109375 9.214844 L 18.949219 9.199219 L 18.78125 9.183594 L 18.609375 9.175781 L 18.429688 9.167969 L 18.246094 9.164062 Z M 18.058594 9.160156 "/>
</g>
</svg>
